<svg width="26" height="25" viewBox="0 0 26 25" fill="none" xmlns="http://www.w3.org/2000/svg">
<path d="M13.1772 24.999C20.0805 24.999 25.6768 19.4028 25.6768 12.4995C25.6768 5.59622 20.0805 0 13.1772 0C6.27396 0 0.677734 5.59622 0.677734 12.4995C0.677734 19.4028 6.27396 24.999 13.1772 24.999Z" fill="black"/>
<path d="M15.1768 6.50035C14.5768 7.20032 13.6769 7.7003 12.7769 7.60031C12.6769 6.70034 13.0769 5.70038 13.5769 5.1004C14.1768 4.40043 15.1768 3.90045 15.9768 3.90045C16.0768 4.90041 15.6768 5.80038 15.1768 6.50035Z" fill="white"/>
<path d="M15.977 7.79973C14.6771 7.69973 13.5771 8.4997 12.8771 8.4997C12.2772 8.4997 11.2772 7.79973 10.2772 7.79973C8.87729 7.79973 7.67734 8.5997 6.97736 9.79965C5.57742 12.1996 6.57738 15.7994 7.97732 17.7993C8.6773 18.7993 9.47727 19.8993 10.4772 19.7993C11.4772 19.7993 11.8772 19.0993 13.0771 19.0993C14.2771 19.0993 14.6771 19.7993 15.677 19.6993C16.777 19.6993 17.477 18.6993 18.1769 17.6993C18.9769 16.5994 19.2769 15.4994 19.2769 15.3994C19.2769 15.3994 17.177 14.5995 17.177 12.1996C17.177 10.1996 18.8769 9.19967 18.8769 9.19967C17.9769 7.99972 16.477 7.79973 15.977 7.79973Z" fill="white"/>
</svg>
