<svg width="42" height="12" viewBox="0 0 42 12" fill="none" xmlns="http://www.w3.org/2000/svg">
<path opacity="0.2" d="M0.243382 5.40206L5.24006 0.247422C5.4006 0.0824734 5.60128 -2.2284e-06 5.80195 -2.21086e-06C6.00262 -2.19332e-06 6.20329 0.0824735 6.36382 0.247422C6.6849 0.577319 6.6849 1.09279 6.36382 1.42268L2.73168 5.17526L41.1973 5.17526C41.6388 5.17526 42 5.54639 42 6C42 6.45361 41.6388 6.82474 41.1973 6.82474L2.73168 6.82474L6.36382 10.5773C6.68489 10.9072 6.68489 11.4227 6.36382 11.7526C6.04275 12.0825 5.54107 12.0825 5.22 11.7526L0.223305 6.59793C-0.0777011 6.24742 -0.0776934 5.71134 0.243382 5.40206Z" fill="white"/>
</svg>
