<svg width="33" height="25" viewBox="0 0 33 25" fill="none" xmlns="http://www.w3.org/2000/svg">
<path d="M32.8814 19.9524C32.8814 22.7403 30.6227 24.999 27.8348 24.999H0.43457V5.04661C0.43457 2.25876 2.69333 0 5.48118 0H32.8814V19.9524Z" fill="white"/>
<path d="M23.9479 12.9318H23.9683H23.9988H24.0293H24.0599H24.0904H24.1209H24.1514H24.182H24.2125H24.243H24.2735H24.3041H24.3346H24.3651H24.3956H24.4261H24.4567H24.4872H24.5177H24.5482H24.5788H24.6093H24.6398H24.6703H24.7009H24.7314H24.7619H24.7924H24.823H24.8535H24.884H24.9145H24.9451H24.9756H25.0061H25.0366H25.0671H25.0977H25.1282H25.1587H25.1892H25.2198H25.2503H25.2808H25.3113H25.3419H25.3724H25.4029H25.4334H25.464H25.4945H25.525H25.5555H25.5861H25.6166H25.6471H25.6776H25.7081H25.7387H25.7692H25.7997H25.8099C25.8201 12.9318 25.8302 12.9318 25.8404 12.9318C25.8506 12.9318 25.8608 12.9318 25.8709 12.9318C25.8811 12.9318 25.8913 12.9318 25.9015 12.9318C25.9116 12.9318 25.9218 12.9318 25.932 12.9318C25.9422 12.9318 25.9523 12.9318 25.9625 12.9318C25.9727 12.9318 25.9829 12.9318 25.993 12.942C26.0032 12.942 26.0032 12.942 26.0134 12.942H26.0236C26.0337 12.942 26.0439 12.9522 26.0541 12.9522C26.0643 12.9522 26.0744 12.9624 26.0846 12.9624C26.0948 12.9624 26.105 12.9725 26.1151 12.9725C26.1253 12.9725 26.1355 12.9827 26.1457 12.9827C26.1558 12.9827 26.166 12.9929 26.1762 12.9929C26.1864 13.0031 26.1965 13.0031 26.2067 13.0132C26.2169 13.0234 26.2271 13.0234 26.2372 13.0336C26.2474 13.0438 26.2576 13.0438 26.2678 13.0539C26.2779 13.0641 26.2881 13.0641 26.2983 13.0743C26.3085 13.0845 26.3186 13.0946 26.3288 13.0946C26.339 13.1048 26.3491 13.115 26.3593 13.1252C26.3695 13.1353 26.3797 13.1455 26.3898 13.1557C26.4 13.1659 26.4102 13.176 26.4204 13.1862C26.4305 13.1964 26.4407 13.2065 26.4509 13.2269C26.4611 13.2371 26.4712 13.2574 26.4814 13.2676C26.4916 13.2879 26.5018 13.2981 26.5119 13.3185C26.5221 13.3388 26.5323 13.3592 26.5425 13.3693C26.5526 13.3897 26.5628 13.41 26.573 13.4304C26.5832 13.4609 26.5933 13.4813 26.6035 13.5118C26.6137 13.5525 26.634 13.5932 26.634 13.6339C26.6544 13.7051 26.6544 13.7763 26.6544 13.8577C26.6544 13.9391 26.6442 14.0103 26.634 14.0816C26.6239 14.1223 26.6137 14.163 26.6035 14.2037C26.5933 14.2342 26.5832 14.2545 26.573 14.2851C26.5628 14.3054 26.5526 14.3258 26.5425 14.3461C26.5323 14.3665 26.5221 14.3868 26.5119 14.397C26.5018 14.4173 26.4916 14.4275 26.4814 14.4479C26.4712 14.458 26.4611 14.4784 26.4509 14.4885C26.4407 14.4987 26.4305 14.5089 26.4204 14.5292C26.4102 14.5394 26.4 14.5496 26.3898 14.5598C26.3797 14.5699 26.3695 14.5801 26.3593 14.5903C26.3491 14.6005 26.339 14.6106 26.3288 14.6208C26.3186 14.631 26.3085 14.6412 26.2983 14.6412C26.2881 14.6513 26.2779 14.6615 26.2678 14.6615C26.2576 14.6717 26.2474 14.6717 26.2372 14.6819C26.2271 14.692 26.2169 14.692 26.2067 14.7022C26.1965 14.7124 26.1864 14.7124 26.1762 14.7226C26.166 14.7327 26.1558 14.7327 26.1457 14.7327C26.1355 14.7327 26.1253 14.7429 26.1151 14.7429C26.105 14.7429 26.0948 14.7531 26.0846 14.7531C26.0744 14.7531 26.0643 14.7633 26.0541 14.7633C26.0439 14.7633 26.0337 14.7734 26.0236 14.7734H26.0134C26.0032 14.7734 26.0032 14.7734 25.993 14.7734C25.9829 14.7734 25.9727 14.7734 25.9625 14.7836C25.9523 14.7836 25.9422 14.7836 25.932 14.7836C25.9218 14.7836 25.9116 14.7836 25.9015 14.7836C25.8913 14.7836 25.8811 14.7836 25.8709 14.7836C25.8608 14.7836 25.8506 14.7836 25.8404 14.7836C25.8302 14.7836 25.8201 14.7836 25.8099 14.7836H25.7895H25.7692H25.7387H25.7081H25.6776H25.6471H25.6166H25.5861H25.5555H25.525H25.4945H25.6675H25.6369H25.6064H25.5657H25.5352H25.5047H25.464H25.4334H25.4029H25.3622H25.3317H25.3012H25.2706H25.2401H25.2096H25.1791H25.1485H25.118H25.0875H25.057H25.0264H24.9959H24.9654H24.9349H24.9044H24.8738H24.8433H24.8128H24.7823H24.7517H24.7212H24.6907H24.6602H24.6296H24.5991H24.5686H24.5381H24.5075H24.3448H24.3142H24.2837H24.243H24.2125H24.182H24.1413H24.1107H24.0802H24.0395H24.009H23.9785H23.9581L23.9479 12.9318ZM26.746 10.785C26.7561 10.846 26.7663 10.9173 26.7663 10.9885C26.7663 11.0597 26.7561 11.1309 26.746 11.192C26.7358 11.2327 26.7256 11.2734 26.7154 11.3141C26.7053 11.3446 26.6951 11.3649 26.6849 11.3955C26.6747 11.4158 26.6646 11.4362 26.6544 11.4565C26.6442 11.4769 26.634 11.487 26.6239 11.5074C26.6137 11.5277 26.6035 11.5379 26.5933 11.5481C26.5832 11.5583 26.573 11.5786 26.5628 11.5888C26.5526 11.599 26.5425 11.6091 26.5323 11.6193C26.5221 11.6295 26.5119 11.6397 26.5018 11.6498C26.4916 11.66 26.4814 11.6702 26.4712 11.6804C26.4611 11.6905 26.4509 11.7007 26.4407 11.7007C26.4305 11.7109 26.4204 11.7211 26.4102 11.7211C26.4 11.7312 26.3898 11.7312 26.3797 11.7414C26.3695 11.7516 26.3593 11.7516 26.3491 11.7618C26.339 11.7719 26.3288 11.7719 26.3186 11.7821C26.3085 11.7923 26.2983 11.7923 26.2881 11.7923C26.2779 11.7923 26.2678 11.8025 26.2576 11.8025C26.2474 11.8025 26.2372 11.8126 26.2271 11.8126C26.2169 11.8126 26.2067 11.8228 26.1965 11.8228C26.1864 11.8228 26.1762 11.833 26.166 11.833C26.1558 11.833 26.1457 11.833 26.1355 11.8432H26.1253C26.1151 11.8432 26.105 11.8432 26.0948 11.8432C26.0846 11.8432 26.0744 11.8432 26.0643 11.8432C26.0541 11.8432 26.0439 11.8432 26.0337 11.8432C26.0236 11.8432 26.0134 11.8432 26.0032 11.8432C25.993 11.8432 25.9829 11.8432 25.9727 11.8432C25.9625 11.8432 25.9523 11.8432 25.9422 11.8432H25.932H25.9015H25.8709H25.8404H25.8099H25.6675H25.6369H25.6064H25.5657H25.5352H25.5047H25.464H25.4334H25.4029H25.3622H25.3317H25.3012H25.2706H25.2401H25.2096H25.1791H25.1485H25.118H25.0875H25.057H25.0264H24.9959H24.9654H24.9349H24.9044H24.8738H24.8433H24.8128H24.7823H24.7517H24.7212H24.6907H24.6602H24.6296H24.5991H24.5686H24.5381H24.5075H24.3448H24.3142H24.2837H24.243H24.2125H24.182H24.1413H24.1107H24.0802H24.0395H24.009H23.9785H23.9581V10.1135H23.9785H24.009H24.0395H24.07H24.1006H24.1311H24.1616H24.1921H24.2227H24.2532H24.2837H24.3142H24.3448H24.3753H24.4058H24.4363H24.4668H24.4974H24.5279H24.5584H24.5889H24.6195H24.65H24.6805H24.711H24.7416H24.7721H24.8026H24.8331H24.8637H24.8942H24.9247H24.9552H24.9858H25.0163H25.0468H25.0773H25.1078H25.1384H25.1689H25.1994H25.2299H25.2605H25.291H25.3215H25.352H25.3826H25.4131H25.4436H25.4741H25.5047H25.5352H25.5657H25.5962H25.6268H25.6369H25.6573C25.6674 10.1135 25.6776 10.1135 25.6878 10.1135C25.698 10.1135 25.7081 10.1135 25.7183 10.1135C25.7285 10.1135 25.7387 10.1135 25.7488 10.1135C25.759 10.1135 25.7692 10.1135 25.7794 10.1135C25.7895 10.1135 25.7997 10.1135 25.8099 10.1135H25.8201C25.8302 10.1135 25.8404 10.1135 25.8506 10.1236C25.8608 10.1236 25.8709 10.1338 25.8811 10.1338C25.8913 10.1338 25.9015 10.144 25.9116 10.144C25.9218 10.144 25.932 10.1542 25.9422 10.1542C25.9523 10.1542 25.9625 10.1643 25.9727 10.1643C25.9829 10.1643 25.993 10.1745 26.0032 10.1745C26.0134 10.1847 26.0236 10.1847 26.0337 10.1949C26.0439 10.205 26.0541 10.205 26.0643 10.2152C26.0744 10.2254 26.0846 10.2254 26.0948 10.2356C26.105 10.2457 26.1151 10.2457 26.1253 10.2559C26.1355 10.2661 26.1457 10.2763 26.1558 10.2763C26.166 10.2864 26.1762 10.2966 26.1864 10.3068C26.1965 10.317 26.2067 10.3271 26.2169 10.3373C26.2271 10.3475 26.2372 10.3577 26.2474 10.3678C26.2576 10.378 26.2678 10.3984 26.2779 10.4085C26.2881 10.4187 26.2983 10.4391 26.3085 10.4492C26.3186 10.4696 26.3288 10.4798 26.339 10.5001C26.3492 10.5205 26.3593 10.5408 26.3695 10.5611C26.3797 10.5917 26.3898 10.612 26.4 10.6425C26.7256 10.7036 26.7358 10.7443 26.746 10.785ZM31.06 1.67871H31.0702V19.7081C31.0702 19.82 31.0702 19.9218 31.06 20.0235C31.0498 20.1151 31.0396 20.2067 31.0295 20.2983C31.0193 20.3593 31.0091 20.4204 30.9989 20.4814C30.9888 20.5323 30.9786 20.5831 30.9684 20.6238C30.9583 20.6645 30.9481 20.7052 30.9379 20.7459C30.9277 20.7866 30.9176 20.8172 30.9074 20.8579C30.8972 20.8884 30.887 20.9189 30.8769 20.9596C30.8667 20.9901 30.8565 21.0207 30.8463 21.0512C30.8362 21.0817 30.826 21.102 30.8158 21.1326C30.8056 21.1631 30.7955 21.1834 30.7853 21.214C30.7751 21.2343 30.7649 21.2648 30.7548 21.2852C30.7446 21.3055 30.7344 21.3361 30.7242 21.3564C30.7141 21.3768 30.7039 21.3971 30.6937 21.4175C30.6835 21.4378 30.6734 21.4582 30.6632 21.4785C30.653 21.4989 30.6428 21.5192 30.6327 21.5396C30.6225 21.5599 30.6123 21.5803 30.6021 21.6006C30.592 21.621 30.5818 21.6413 30.5716 21.6515C30.5614 21.6718 30.5513 21.682 30.5411 21.7024C30.5309 21.7227 30.5207 21.7329 30.5106 21.7532C30.5004 21.7736 30.4902 21.7837 30.48 21.8041C30.4699 21.8244 30.4597 21.8346 30.4495 21.855C30.4393 21.8753 30.4292 21.8855 30.419 21.9058C30.4088 21.916 30.3986 21.9364 30.3885 21.9465C30.3783 21.9567 30.3681 21.9771 30.3579 21.9872C30.3478 21.9974 30.3376 22.0178 30.3274 22.0279C30.3172 22.0381 30.3071 22.0585 30.2969 22.0686C30.2867 22.0788 30.2766 22.0992 30.2664 22.1093C30.2562 22.1195 30.246 22.1399 30.2359 22.15C30.2257 22.1602 30.2155 22.1704 30.2053 22.1907C30.1952 22.2009 30.185 22.2111 30.1748 22.2314C30.1646 22.2416 30.1545 22.2518 30.1443 22.262C30.1341 22.2721 30.1239 22.2823 30.1138 22.2925C30.1036 22.3027 30.0934 22.3128 30.0832 22.323C30.0731 22.3332 30.0629 22.3434 30.0527 22.3535C30.0425 22.3637 30.0324 22.3739 30.0222 22.3841C30.012 22.3942 30.0018 22.4044 29.9917 22.4146C29.9815 22.4247 29.9713 22.4349 29.9611 22.4451C29.951 22.4553 29.9408 22.4654 29.9306 22.4756C29.9204 22.4858 29.9103 22.496 29.9001 22.5061C29.8899 22.5163 29.8797 22.5265 29.8696 22.5367C29.8594 22.5468 29.8492 22.557 29.839 22.5672C29.8289 22.5774 29.8187 22.5875 29.8085 22.5977C29.7983 22.6079 29.7882 22.6181 29.778 22.6282C29.7678 22.6384 29.7576 22.6486 29.7475 22.6486C29.7373 22.6588 29.7271 22.6689 29.7169 22.6689C29.7068 22.6791 29.6966 22.6893 29.6864 22.6893C29.6762 22.6995 29.6661 22.7096 29.6559 22.7096C29.6457 22.7198 29.6355 22.73 29.6254 22.73C29.6152 22.7402 29.605 22.7402 29.5949 22.7503C29.5847 22.7605 29.5745 22.7605 29.5643 22.7707C29.5542 22.7809 29.544 22.7809 29.5338 22.791L29.5033 22.8114C29.4931 22.8216 29.4829 22.8216 29.4728 22.8317C29.4626 22.8419 29.4524 22.8419 29.4422 22.8521C29.4321 22.8623 29.4219 22.8623 29.4117 22.8724C29.4015 22.8826 29.3914 22.8826 29.3812 22.8928C29.371 22.903 29.3608 22.903 29.3507 22.9131C29.3405 22.9233 29.3303 22.9233 29.3201 22.9335C29.31 22.9437 29.2998 22.9437 29.2896 22.9538C29.2794 22.964 29.2693 22.964 29.2591 22.9742L29.2286 22.9945L29.198 23.0149C29.1879 23.0251 29.1777 23.0251 29.1675 23.0251C29.1573 23.0251 29.1472 23.0352 29.137 23.0352C29.1268 23.0352 29.1166 23.0454 29.1065 23.0454C29.0963 23.0454 29.0861 23.0556 29.0759 23.0556C29.0658 23.0556 29.0556 23.0658 29.0454 23.0658C29.0352 23.0658 29.0251 23.0759 29.0149 23.0759L28.9844 23.0861C28.9742 23.0861 28.964 23.0963 28.9538 23.0963C28.9437 23.0963 28.9335 23.1064 28.9233 23.1064C28.9132 23.1064 28.903 23.1166 28.8928 23.1166L28.8623 23.1268C28.8521 23.1268 28.8419 23.137 28.8318 23.137L28.8012 23.1471C28.7911 23.1471 28.7809 23.1573 28.7707 23.1573C28.7605 23.1573 28.7504 23.1675 28.7402 23.1675C28.73 23.1675 28.7198 23.1777 28.7097 23.1777L28.6791 23.1878L28.6486 23.198L28.6181 23.2082C28.6079 23.2082 28.5977 23.2082 28.5876 23.2184C28.5774 23.2184 28.5672 23.2285 28.557 23.2285L28.5265 23.2387L28.496 23.2489C28.4858 23.2489 28.4756 23.2489 28.4655 23.2591C28.4553 23.2591 28.4451 23.2591 28.4349 23.2692L28.4044 23.2794L28.3739 23.2896H28.3434C28.3332 23.2896 28.323 23.2896 28.3128 23.2896C28.3027 23.2896 28.2925 23.2896 28.2823 23.2896C28.2722 23.2896 28.262 23.2896 28.2518 23.2896C28.2416 23.2896 28.2315 23.2896 28.2213 23.2896C28.2111 23.2896 28.2009 23.2896 28.1908 23.2896C28.1806 23.2896 28.1704 23.2896 28.1602 23.2896C28.1501 23.2896 28.1399 23.2896 28.1297 23.2896H28.0992C28.089 23.2896 28.0788 23.2896 28.0687 23.2896C28.0585 23.2896 28.0483 23.2896 28.0381 23.2896H28.0076H27.9771C27.9669 23.2896 27.9567 23.2896 27.9466 23.2896H27.916H27.9059H27.8753H27.8448H27.8143H27.7838H27.7532H27.7227H27.6922H27.6617H27.6311H27.6006H27.0919H27.0614H27.0308H26.9901H26.9596H26.9291H26.8884H26.8579H26.8274H26.7867H26.7561H26.7256H26.6951H26.6646H26.634H26.6035H26.573H26.5425H26.5119H26.4814H26.4509H26.4204H26.3898H26.3593H26.3288H26.2983H26.2678H26.2372H26.2067H26.1762H26.1457H26.1151H26.0846H26.0541H26.0236H25.993H25.9625H25.932H25.9015H25.8709H25.8404H25.6675H25.6369H25.6064H25.5657H25.5352H25.5047H25.464H25.4334H25.4029H25.3724H25.3419H25.3113H25.2808H25.2503H25.2198H25.1892H25.1587H25.1282H25.0977H25.0671H25.0366H25.0061H24.9756H24.9451H24.9145H24.884H24.8535H24.823H24.7924H24.7619H24.7314H24.7009H24.6703H24.6398H24.6093H24.5788H24.5482H24.5177H24.3448H24.3142H24.2837H24.243H24.2125H24.182H24.1413H24.1107H24.0802H24.0395H24.009H23.9785H23.9479H23.9174H23.8869H23.8564H23.8258H23.7953H23.7648H23.7343H23.7037H23.6732H23.6427H23.6122H23.5817H23.5511H23.5206H23.4901H23.4596H23.429H23.3985H23.368H23.3375H23.3069H23.2764H23.2459H23.2154H23.1848H23.0221H22.9915H22.961H22.9203H22.8898H22.8593H22.8186H22.788H22.7575H22.7168H22.6863H22.6558H22.6252H22.5947H22.5642H22.5337H22.5031H22.4726H22.4421H22.4116H22.381H22.3505H22.32H22.2488V15.9435H22.32H22.3505H22.381H22.4116H22.4421H22.4726H22.5031H22.5337H22.5642H22.5947H22.6252H22.6558H22.6863H22.7168H22.7473H22.7779H22.8084H22.8389H22.8694H22.9H22.9305H22.961H22.9915H23.0221H23.0526H23.0831H23.1136H23.1441H23.1747H23.2052H23.2357H23.2662H23.2968H23.3273H23.3578H23.3883H23.4189H23.4494H23.4799H23.5104H23.541H23.5715H23.602H23.6325H23.6631H23.6936H23.7241H23.7546H23.7851H23.8157H23.8462H23.8767H23.9072H23.9378H23.9683H23.9988H24.0293H24.0599H24.0904H24.1209H24.1514H24.182H24.2125H24.243H24.2735H24.3041H24.3346H24.3651H24.3956H24.4261H24.4567H24.4872H24.5177H24.5482H24.5788H24.6093H24.6398H24.6703H24.7009H24.7314H24.7619H24.7924H24.823H24.8535H24.884H24.9145H24.9451H24.9756H25.0061H25.0366H25.0671H25.0977H25.1282H25.1587H25.1892H25.2198H25.2503H25.2808H25.3113H25.3419H25.3724H25.4029H25.4334H25.464H25.4945H25.525H25.5555H25.5861H25.6166H25.6471H25.6776H25.7081H25.7387H25.7692H25.7997H25.8302H25.8608H25.8913H25.9218H25.9523H25.9829H26.0134H26.0439H26.0744H26.105H26.1355H26.166H26.1965H26.2271H26.2576H26.2881H26.3186H26.3491H26.3797H26.4102H26.4407H26.4712H26.5018H26.5323H26.5628H26.5933H26.6239H26.6544H26.6849H26.7154H26.746H26.7765H26.807H26.8375H26.8681H26.8986H26.9291H26.9596H26.9901H27.0207H27.0512H27.0817H27.1122H27.1428H27.1631H27.1835H27.214H27.2445C27.2547 15.9435 27.2649 15.9435 27.275 15.9435C27.2852 15.9435 27.2954 15.9435 27.3056 15.9435H27.3361H27.3666H27.3971H27.4277H27.4582C27.4684 15.9435 27.4785 15.9435 27.4887 15.9435C27.4989 15.9435 27.5091 15.9435 27.5192 15.9435H27.5498C27.5599 15.9435 27.5701 15.9435 27.5803 15.9435C27.5905 15.9435 27.6006 15.9435 27.6108 15.9333C27.621 15.9333 27.6312 15.9333 27.6413 15.9232L27.6719 15.913L27.7024 15.9028C27.7125 15.9028 27.7227 15.9028 27.7329 15.8926C27.7431 15.8926 27.7532 15.8926 27.7634 15.8825L27.7939 15.8723C27.8041 15.8723 27.8143 15.8621 27.8245 15.8621C27.8346 15.8621 27.8448 15.8519 27.855 15.8519C27.8652 15.8519 27.8753 15.8418 27.8855 15.8418C27.8957 15.8418 27.9059 15.8316 27.916 15.8316C27.9262 15.8316 27.9364 15.8214 27.9466 15.8214C27.9567 15.8214 27.9669 15.8112 27.9771 15.8112L28.0076 15.8011C28.0178 15.8011 28.028 15.7909 28.0381 15.7909C28.0483 15.7909 28.0585 15.7807 28.0687 15.7807C28.0788 15.7807 28.089 15.7706 28.0992 15.7706C28.1094 15.7706 28.1195 15.7604 28.1297 15.7604C28.1399 15.7604 28.1501 15.7502 28.1602 15.7502C28.1704 15.7502 28.1806 15.74 28.1908 15.74C28.2009 15.74 28.2111 15.7299 28.2213 15.7299C28.2315 15.7197 28.2416 15.7197 28.2518 15.7095C28.262 15.6993 28.2722 15.6993 28.2823 15.6892C28.2925 15.679 28.3027 15.679 28.3128 15.6688C28.323 15.6586 28.3332 15.6586 28.3434 15.6485C28.3535 15.6383 28.3637 15.6383 28.3739 15.6281C28.3841 15.6179 28.3942 15.6179 28.4044 15.6078C28.4146 15.5976 28.4248 15.5976 28.4349 15.5874C28.4451 15.5772 28.4553 15.5772 28.4655 15.5671C28.4756 15.5569 28.4858 15.5569 28.496 15.5467C28.5062 15.5365 28.5163 15.5264 28.5265 15.5264C28.5367 15.5162 28.5469 15.506 28.557 15.506C28.5672 15.4958 28.5774 15.4857 28.5876 15.4857C28.5977 15.4755 28.6079 15.4653 28.6181 15.4551C28.6283 15.445 28.6384 15.4348 28.6486 15.4246C28.6588 15.4144 28.669 15.4043 28.6791 15.3941C28.6893 15.3839 28.6995 15.3737 28.7097 15.3636C28.7198 15.3534 28.73 15.3432 28.7402 15.333C28.7504 15.3229 28.7605 15.3127 28.7707 15.3025C28.7809 15.2923 28.7911 15.2822 28.8012 15.2618C28.8114 15.2516 28.8216 15.2313 28.8318 15.2211C28.8419 15.2109 28.8521 15.1906 28.8623 15.1804C28.8725 15.1702 28.8826 15.1499 28.8928 15.1397C28.903 15.1194 28.9132 15.1092 28.9233 15.0889C28.9335 15.0685 28.9437 15.0583 28.9538 15.038C28.964 15.0176 28.9742 14.9973 28.9844 14.9871C28.9945 14.9668 29.0047 14.9464 29.0149 14.9261C29.0251 14.9057 29.0352 14.8854 29.0454 14.8548C29.0556 14.8243 29.0658 14.804 29.0759 14.7734C29.0861 14.7429 29.0963 14.7124 29.1065 14.6819C29.1166 14.6412 29.1268 14.6005 29.137 14.5598C29.1472 14.4987 29.1675 14.4377 29.1675 14.3766C29.1777 14.3054 29.1879 14.224 29.1879 14.1426C29.1879 14.0612 29.1777 13.99 29.1675 13.9188C29.1573 13.8577 29.1472 13.7967 29.137 13.7458C29.1268 13.7051 29.1166 13.6644 29.1065 13.6339C29.0963 13.6034 29.0861 13.5728 29.0759 13.5423C29.0658 13.5118 29.0556 13.4914 29.0454 13.4711C29.0352 13.4507 29.0251 13.4304 29.0149 13.3999C29.0047 13.3795 28.9945 13.3592 28.9844 13.3388C28.9742 13.3185 28.964 13.2981 28.9538 13.2879C28.9437 13.2676 28.9335 13.2574 28.9233 13.2371C28.9132 13.2167 28.903 13.2065 28.8928 13.1964C28.8826 13.1862 28.8725 13.1659 28.8623 13.1557C28.8521 13.1455 28.8419 13.1252 28.8318 13.115C28.8216 13.1048 28.8114 13.0946 28.8012 13.0743C28.7911 13.0641 28.7809 13.0539 28.7707 13.0438C28.7605 13.0336 28.7504 13.0234 28.7402 13.0132C28.73 13.0031 28.7198 12.9929 28.7097 12.9827C28.6995 12.9725 28.6893 12.9624 28.6791 12.9522C28.669 12.942 28.6588 12.9318 28.6486 12.9217C28.6384 12.9115 28.6283 12.9013 28.6181 12.8911C28.6079 12.881 28.5977 12.8708 28.5876 12.8606C28.5774 12.8504 28.5672 12.8403 28.557 12.8403C28.5469 12.8301 28.5367 12.8199 28.5265 12.8199C28.5163 12.8097 28.5062 12.8097 28.496 12.7996C28.4858 12.7894 28.4756 12.7894 28.4655 12.7792C28.4553 12.769 28.4451 12.769 28.4349 12.7589C28.4248 12.7487 28.4146 12.7487 28.4044 12.7385C28.3942 12.7283 28.3841 12.7283 28.3739 12.7182C28.3637 12.708 28.3535 12.708 28.3434 12.6978C28.3332 12.6876 28.323 12.6876 28.3128 12.6775C28.3027 12.6673 28.2925 12.6673 28.2823 12.6571C28.2722 12.6469 28.262 12.6469 28.2518 12.6368C28.2416 12.6266 28.2315 12.6266 28.2213 12.6266C28.2111 12.6266 28.2009 12.6164 28.1908 12.6164C28.1806 12.6164 28.1704 12.6062 28.1602 12.6062C28.1501 12.6062 28.1399 12.5961 28.1297 12.5961C28.1195 12.5961 28.1094 12.5859 28.0992 12.5859C28.089 12.5859 28.0788 12.5757 28.0687 12.5757C28.0585 12.5757 28.0483 12.5655 28.0381 12.5655C28.028 12.5655 28.0178 12.5554 28.0076 12.5554C27.9974 12.5554 27.9873 12.5452 27.9771 12.5452L27.9466 12.535C27.9364 12.535 27.9262 12.5248 27.916 12.5248C27.9059 12.5248 27.8957 12.5147 27.8855 12.5147C27.8753 12.5147 27.8652 12.5045 27.855 12.5045C27.8448 12.5045 27.8346 12.4943 27.8245 12.4943C27.8143 12.4943 27.8041 12.4842 27.7939 12.4842C27.7838 12.4842 27.7736 12.4842 27.7634 12.474C27.7532 12.474 27.7431 12.474 27.7329 12.4638L27.7024 12.4536L27.6719 12.4435C27.6617 12.4435 27.6515 12.4435 27.6413 12.4333L27.6108 12.4231C27.6006 12.4231 27.5905 12.4231 27.5803 12.4231H27.5498H27.5192H27.4887H27.4582H27.4277H27.3971H27.3666V12.3824H27.3971L27.4277 12.3722C27.4378 12.3722 27.448 12.3722 27.4582 12.3621L27.4887 12.3519C27.4989 12.3519 27.5091 12.3519 27.5192 12.3417L27.5498 12.3315C27.5599 12.3315 27.5701 12.3214 27.5803 12.3214C27.5905 12.3214 27.6006 12.3112 27.6108 12.3112C27.621 12.3112 27.6312 12.301 27.6413 12.301C27.6515 12.301 27.6617 12.2908 27.6719 12.2908C27.682 12.2908 27.6922 12.2807 27.7024 12.2807C27.7125 12.2807 27.7227 12.2705 27.7329 12.2705C27.7431 12.2705 27.7532 12.2603 27.7634 12.2603C27.7736 12.2603 27.7838 12.2501 27.7939 12.2501C27.8041 12.2501 27.8143 12.24 27.8245 12.24C27.8346 12.24 27.8448 12.2298 27.855 12.2298C27.8652 12.2298 27.8753 12.2196 27.8855 12.2196C27.8957 12.2196 27.9059 12.2094 27.916 12.2094C27.9262 12.1993 27.9364 12.1993 27.9466 12.1891C27.9567 12.1789 27.9669 12.1789 27.9771 12.1687C27.9873 12.1586 27.9974 12.1586 28.0076 12.1484C28.0178 12.1382 28.028 12.1382 28.0381 12.128C28.0483 12.1179 28.0585 12.1179 28.0687 12.1077C28.0788 12.0975 28.089 12.0975 28.0992 12.0873C28.1094 12.0772 28.1195 12.0772 28.1297 12.067C28.1399 12.0568 28.1501 12.0568 28.1602 12.0466C28.1704 12.0365 28.1806 12.0365 28.1908 12.0263C28.2009 12.0161 28.2111 12.0059 28.2213 12.0059C28.2315 11.9958 28.2416 11.9856 28.2518 11.9856C28.262 11.9754 28.2722 11.9652 28.2823 11.9551C28.2925 11.9449 28.3027 11.9347 28.3128 11.9245C28.323 11.9144 28.3332 11.9042 28.3434 11.894C28.3535 11.8838 28.3637 11.8737 28.3739 11.8635C28.3841 11.8533 28.3942 11.8432 28.4044 11.833C28.4146 11.8228 28.4248 11.8126 28.4349 11.8025C28.4451 11.7923 28.4553 11.7821 28.4655 11.7618C28.4756 11.7516 28.4858 11.7312 28.496 11.7211C28.5062 11.7109 28.5163 11.6905 28.5265 11.6804C28.5367 11.66 28.5469 11.6498 28.557 11.6295C28.5672 11.6091 28.5774 11.599 28.5876 11.5786C28.5977 11.5583 28.6079 11.5379 28.6181 11.5277C28.6283 11.5074 28.6384 11.487 28.6486 11.4667C28.6588 11.4463 28.669 11.426 28.6791 11.3955C28.6893 11.3649 28.6995 11.3446 28.7097 11.3141C28.7198 11.2835 28.73 11.253 28.7402 11.2225C28.7504 11.1818 28.7605 11.1411 28.7707 11.1004C28.7911 11.0292 28.8012 10.9681 28.8012 10.8969C28.8114 10.846 28.8114 10.785 28.8114 10.7341C28.8114 10.6731 28.8114 10.612 28.8012 10.5611C28.7911 10.4899 28.7809 10.4187 28.7707 10.3475C28.7605 10.3068 28.7504 10.2661 28.7402 10.2254C28.73 10.1949 28.7198 10.1643 28.7097 10.1338C28.6995 10.1033 28.6893 10.0829 28.6791 10.0524C28.669 10.0321 28.6588 10.0117 28.6486 9.9812C28.6384 9.96085 28.6283 9.9405 28.6181 9.92015C28.6079 9.8998 28.5977 9.87945 28.5876 9.86928C28.5774 9.84893 28.5672 9.83875 28.557 9.8184C28.5469 9.79805 28.5367 9.78788 28.5265 9.7777C28.5163 9.76753 28.5062 9.74718 28.496 9.73701C28.4858 9.72683 28.4756 9.70648 28.4655 9.69631C28.4553 9.68613 28.4451 9.67596 28.4349 9.65561C28.4248 9.64543 28.4146 9.63526 28.4044 9.62508C28.3942 9.61491 28.3841 9.60474 28.3739 9.59456C28.3637 9.58439 28.3535 9.57421 28.3434 9.56404C28.3332 9.55386 28.323 9.54369 28.3128 9.53351C28.3027 9.52334 28.2925 9.51316 28.2823 9.50299C28.2722 9.49282 28.262 9.48264 28.2518 9.47247C28.2416 9.46229 28.2315 9.45212 28.2213 9.45212C28.2111 9.44194 28.2009 9.43177 28.1908 9.43177C28.1806 9.42159 28.1704 9.42159 28.1602 9.41142C28.1501 9.40124 28.1399 9.40124 28.1297 9.39107C28.1195 9.38089 28.1094 9.38089 28.0992 9.37072C28.089 9.36054 28.0788 9.36054 28.0687 9.35037C28.0585 9.3402 28.0483 9.3402 28.0381 9.33002C28.028 9.31985 28.0178 9.31985 28.0076 9.30967C27.9974 9.2995 27.9873 9.2995 27.9771 9.28932C27.9669 9.27915 27.9567 9.27915 27.9466 9.26897C27.9364 9.2588 27.9262 9.2588 27.916 9.2588C27.9059 9.2588 27.8957 9.24862 27.8855 9.24862C27.8753 9.24862 27.8652 9.23845 27.855 9.23845C27.8448 9.23845 27.8346 9.22827 27.8245 9.22827C27.8143 9.22827 27.8041 9.2181 27.7939 9.2181C27.7838 9.2181 27.7736 9.20793 27.7634 9.20793C27.7532 9.20793 27.7431 9.19775 27.7329 9.19775C27.7227 9.19775 27.7125 9.18758 27.7024 9.18758C27.6922 9.18758 27.682 9.1774 27.6719 9.1774C27.6617 9.1774 27.6515 9.16723 27.6413 9.16723C27.6312 9.16723 27.621 9.15705 27.6108 9.15705L27.5803 9.14688C27.5701 9.14688 27.5599 9.1367 27.5498 9.1367C27.5396 9.1367 27.5294 9.12653 27.5192 9.12653L27.4887 9.11635C27.4785 9.11635 27.4684 9.11635 27.4582 9.10618C27.448 9.10618 27.4378 9.10618 27.4277 9.096L27.3971 9.08583C27.387 9.08583 27.3768 9.08583 27.3666 9.07565L27.3361 9.06548H27.3056H27.275H27.2445H27.214H27.1835H27.1529H27.1224H27.0919H27.0614H27.0512H27.0308H27.0003H26.9698H26.9393H26.9088H26.8782H26.8477H26.8172H26.7867H26.7561H26.7358H26.7154H26.6849H26.6544H26.6239H26.5933H27.0919H27.0614H27.0308H26.9901H26.9596H26.9291H26.8884H26.8579H26.8274H26.7867H26.7561H26.7256H26.6951H26.6646H26.634H26.6035H26.573H26.5425H26.5119H26.4814H26.4509H26.4204H26.3898H26.3593H26.3288H26.2983H26.2678H26.2372H26.2067H26.1762H26.1457H26.1151H26.0846H26.0541H26.0236H25.993H25.9625H25.932H25.9015H25.8709H25.8404H25.6675H25.6369H25.6064H25.5657H25.5352H25.5047H25.464H25.4334H25.4029H25.3724H25.3419H25.3113H25.2808H25.2503H25.2198H25.1892H25.1587H25.1282H25.0977H25.0671H25.0366H25.0061H24.9756H24.9451H24.9145H24.884H24.8535H24.823H24.7924H24.7619H24.7314H24.7009H24.6703H24.6398H24.6093H24.5788H24.5482H24.5177H24.3448H24.3142H24.2837H24.243H24.2125H24.182H24.1413H24.1107H24.0802H24.0395H24.009H23.9785H23.9479H23.9174H23.8869H23.8564H23.8258H23.7953H23.7648H23.7343H23.7037H23.6732H23.6427H23.6122H23.5817H23.5511H23.5206H23.4901H23.4596H23.429H23.3985H23.368H23.3375H23.3069H23.2764H23.2459H23.2154H23.1848H23.0221H22.9915H22.961H22.9203H22.8898H22.8593H22.8186H22.788H22.7575H22.7168H22.6863H22.6558H22.6252H22.5947H22.5642H22.5337H22.5031H22.4726H22.4421H22.4116H22.381H22.3505H22.32H22.2488V5.2907C22.2488 5.03633 22.2793 4.79214 22.32 4.55813C22.3302 4.50725 22.3404 4.45638 22.3505 4.40551C22.3607 4.36481 22.3709 4.32411 22.381 4.27324C22.3912 4.23254 22.4014 4.20202 22.4116 4.16132C22.4217 4.13079 22.4319 4.09009 22.4421 4.05957C22.4523 4.02905 22.4624 3.99852 22.4726 3.968C22.4828 3.93748 22.493 3.90695 22.5031 3.8866C22.5133 3.85608 22.5235 3.83573 22.5337 3.80521C22.5438 3.78486 22.554 3.75433 22.5642 3.73398C22.5744 3.71363 22.5845 3.68311 22.5947 3.66276C22.6049 3.64241 22.6151 3.62206 22.6252 3.59154C22.6354 3.57119 22.6456 3.55084 22.6558 3.53049C22.6659 3.51014 22.6761 3.48979 22.6863 3.46944C22.6965 3.44909 22.7066 3.42874 22.7168 3.4084C22.727 3.38805 22.7372 3.3677 22.7473 3.35752C22.7575 3.33717 22.7677 3.31682 22.7779 3.30665C22.788 3.2863 22.7982 3.27613 22.8084 3.25578C22.8186 3.23543 22.8287 3.22525 22.8389 3.2049C22.8491 3.18455 22.8593 3.17438 22.8694 3.15403C22.8796 3.13368 22.8898 3.12351 22.9 3.10316C22.9101 3.09298 22.9203 3.07263 22.9305 3.06246C22.9407 3.05228 22.9508 3.03193 22.961 3.02176C22.9712 3.01159 22.9814 2.99124 22.9915 2.98106C23.0017 2.97089 23.0119 2.95054 23.0221 2.94036C23.0322 2.93019 23.0424 2.90984 23.0526 2.89966C23.0627 2.88949 23.0729 2.86914 23.0831 2.85897C23.0933 2.84879 23.1034 2.83862 23.1136 2.81827C23.1238 2.80809 23.134 2.79792 23.1441 2.77757C23.1543 2.76739 23.1645 2.75722 23.1747 2.74705C23.1848 2.73687 23.195 2.7267 23.2052 2.71652C23.2154 2.70635 23.2255 2.69617 23.2357 2.686C23.2459 2.67582 23.2561 2.66565 23.2662 2.65547C23.2764 2.6453 23.2866 2.63512 23.2968 2.62495C23.3069 2.61478 23.3171 2.6046 23.3273 2.59443C23.3375 2.58425 23.3476 2.57408 23.3578 2.5639C23.368 2.55373 23.3782 2.54355 23.3883 2.53338C23.3985 2.5232 23.4087 2.51303 23.4189 2.50285C23.429 2.49268 23.4392 2.48251 23.4494 2.47233L23.4799 2.44181L23.5104 2.41128C23.5206 2.40111 23.5308 2.39093 23.541 2.38076C23.5511 2.37058 23.5613 2.36041 23.5715 2.36041L23.602 2.34006C23.6122 2.32989 23.6224 2.31971 23.6325 2.31971L23.6631 2.29936L23.6936 2.27901C23.7038 2.26884 23.7139 2.26884 23.7241 2.25866L23.7546 2.23831C23.7648 2.22814 23.775 2.22814 23.7851 2.21797C23.7953 2.20779 23.8055 2.20779 23.8157 2.19762C23.8258 2.18744 23.836 2.18744 23.8462 2.17727C23.8564 2.16709 23.8665 2.16709 23.8767 2.15692C23.8869 2.14674 23.8971 2.14674 23.9072 2.13657C23.9174 2.12639 23.9276 2.12639 23.9378 2.11622C23.9479 2.10604 23.9581 2.10604 23.9683 2.09587C23.9785 2.0857 23.9886 2.0857 23.9988 2.07552C24.009 2.06535 24.0192 2.06535 24.0293 2.05517L24.243 2.03482C24.2532 2.02465 24.2634 2.02465 24.2735 2.01447C24.2837 2.0043 24.2939 2.0043 24.3041 1.99412C24.3142 1.98395 24.3244 1.98395 24.3346 1.98395C24.3447 1.98395 24.3549 1.97377 24.3651 1.97377C24.3753 1.97377 24.3854 1.9636 24.3956 1.9636C24.4058 1.9636 24.416 1.95343 24.4261 1.95343L24.4567 1.94325L24.4872 1.93308C24.4974 1.93308 24.5075 1.9229 24.5177 1.9229C24.5279 1.9229 24.5381 1.91273 24.5482 1.91273C24.5584 1.91273 24.5686 1.90255 24.5788 1.90255C24.5889 1.90255 24.5991 1.89238 24.6093 1.89238L24.6398 1.8822C24.65 1.8822 24.6602 1.87203 24.6703 1.87203C24.6805 1.87203 24.6907 1.86185 24.7009 1.86185C24.711 1.86185 24.7212 1.85168 24.7314 1.85168C24.7416 1.85168 24.7517 1.8415 24.7619 1.8415C24.7721 1.8415 24.7823 1.83133 24.7924 1.83133L24.823 1.82116C24.8331 1.82116 24.8433 1.81098 24.8535 1.81098C24.8637 1.81098 24.8738 1.80081 24.884 1.80081C24.8942 1.80081 24.9044 1.80081 24.9145 1.79063L24.9451 1.78046L24.9756 1.77028C24.9858 1.77028 24.9959 1.77028 25.0061 1.76011C25.0163 1.76011 25.0264 1.76011 25.0366 1.74993C25.0468 1.74993 25.057 1.74993 25.0671 1.73976L25.0977 1.72958C25.1078 1.72958 25.118 1.72958 25.1282 1.71941C25.1384 1.71941 25.1485 1.71941 25.1587 1.71941C25.1689 1.71941 25.1791 1.71941 25.1892 1.71941C25.1994 1.71941 25.2096 1.71941 25.2198 1.71941H25.2503C25.2605 1.71941 25.2706 1.71941 25.2808 1.71941C25.291 1.71941 25.3012 1.71941 25.3113 1.71941H25.3419H25.3724C25.3826 1.71941 25.3927 1.71941 25.4029 1.71941C25.4131 1.71941 25.4233 1.71941 25.4334 1.71941C25.4436 1.71941 25.4538 1.71941 25.464 1.71941H25.4945C25.5047 1.71941 25.5148 1.71941 25.525 1.71941C25.5352 1.71941 25.5454 1.71941 25.5555 1.71941C25.5657 1.71941 25.5759 1.71941 25.5861 1.71941H25.5962H25.6268H25.6573H25.6878H25.7183H25.7488H25.7794H25.8099H25.8404H25.8709H25.9015H25.932H25.9625H25.993H26.0236H26.0541H26.0846H26.1151H26.1457H26.1762H26.2067H26.2372H26.2678H26.2983H26.3288H26.3593H26.3898H26.4204H26.4509H26.4814H26.5119H26.5425H26.573H26.6035H26.634H26.6646H26.6951H26.7256H26.7561H26.7867H26.8172H26.8477H26.8782H26.9088H26.9393H26.9698H27.0003H27.0308H27.0614H27.0919H27.1224H27.1529H27.1835H27.214H27.2445H27.275H27.3056H27.3361H27.3666H27.3971H27.4277H27.4582H27.4887H27.5192H27.5498H27.5803H27.6108H27.6413H27.6719H27.7024H27.7329H27.7634H27.7939H27.8245H27.855H27.8855H27.916H27.9466H27.9771H28.0076H28.0381H28.0687H28.0992H28.1297H28.1602H28.1908H28.2213H28.2518H28.2823H28.3128H28.3434H28.3739H28.4044H28.4349H28.4655H28.496H28.5265H28.557H28.5876H28.6181H28.6486H28.6791H28.7097H28.7402H28.7707H28.8012H28.8318H28.8623H28.8928H28.9233H28.9538H28.9844H29.0149H29.0454H29.0759H29.1065H29.137H29.1675H29.198H29.2286H29.2591H29.2896H29.3201H29.3507H29.3812H29.4117H29.4422H29.4728H29.5033H29.5338H29.5643H29.5949H29.6254H29.6559H29.6864H29.7169H29.7475H29.778H29.8085H29.839H29.8696H29.9001H29.9306H29.9611H29.9917H30.0222H30.0527H30.0832H30.1138H30.1443H30.1748H30.2053L31.06 1.67871Z" fill="url(#paint0_linear_329_411)"/>
<path d="M2.3067 14.2243C2.28635 14.2142 2.25582 14.204 2.23547 14.1836V5.29102C2.23547 5.03665 2.266 4.79246 2.3067 4.55844C2.31687 4.50757 2.32705 4.4567 2.33722 4.40582C2.34739 4.36513 2.35757 4.32443 2.36774 4.27356C2.37792 4.23286 2.38809 4.20233 2.39827 4.16163C2.40844 4.13111 2.41862 4.09041 2.42879 4.05989C2.43897 4.02936 2.44914 3.99884 2.45932 3.96832C2.46949 3.93779 2.47966 3.90727 2.48984 3.88692C2.50001 3.8564 2.51019 3.83605 2.52036 3.80552C2.53054 3.78517 2.54071 3.75465 2.55089 3.7343C2.56106 3.71395 2.57124 3.68343 2.58141 3.66308C2.59159 3.64273 2.60176 3.62238 2.61193 3.59186C2.62211 3.57151 2.63228 3.55116 2.64246 3.53081C2.65263 3.51046 2.66281 3.49011 2.67298 3.46976C2.68316 3.44941 2.69333 3.42906 2.70351 3.40871C2.71368 3.38836 2.72386 3.36801 2.73403 3.35784C2.7442 3.33749 2.75438 3.31714 2.76455 3.30697C2.77473 3.28662 2.7849 3.27644 2.79508 3.25609C2.80525 3.23574 2.81543 3.22557 2.8256 3.20522C2.83578 3.18487 2.84595 3.1747 2.85612 3.15435C2.8663 3.134 2.87647 3.12382 2.88665 3.10347C2.89682 3.0933 2.907 3.07295 2.91717 3.06278C2.92735 3.0526 2.93752 3.03225 2.9477 3.02208C2.95787 3.0119 2.96805 2.99155 2.97822 2.98138C2.9884 2.9712 2.99857 2.95086 3.00874 2.94068C3.01892 2.93051 3.02909 2.91016 3.03927 2.89998C3.04944 2.88981 3.05962 2.86946 3.06979 2.85928C3.07997 2.84911 3.09014 2.83893 3.10032 2.81859C3.11049 2.80841 3.12067 2.79824 3.13084 2.77789C3.14101 2.76771 3.15119 2.75754 3.16136 2.74736C3.17154 2.73719 3.18171 2.72701 3.19189 2.71684C3.20206 2.70666 3.21224 2.69649 3.22241 2.68632C3.23259 2.67614 3.24276 2.66597 3.25294 2.65579C3.26311 2.64562 3.27328 2.63544 3.28346 2.62527C3.29363 2.61509 3.30381 2.60492 3.31398 2.59474C3.32416 2.58457 3.33433 2.57439 3.34451 2.56422C3.35468 2.55405 3.36486 2.54387 3.37503 2.5337C3.38521 2.52352 3.39538 2.51335 3.40555 2.50317C3.41573 2.493 3.4259 2.48282 3.43608 2.47265C3.44625 2.46247 3.45643 2.4523 3.4666 2.44212C3.47678 2.43195 3.48695 2.42178 3.49713 2.4116C3.5073 2.40143 3.51748 2.39125 3.52765 2.38108L3.55817 2.36073C3.56835 2.35055 3.57852 2.34038 3.5887 2.34038C3.59887 2.3302 3.60905 2.32003 3.61922 2.32003C3.6294 2.30985 3.63957 2.29968 3.64975 2.29968C3.65992 2.28951 3.67009 2.27933 3.68027 2.27933C3.69044 2.26916 3.70062 2.26916 3.71079 2.25898C3.72097 2.24881 3.73114 2.24881 3.74132 2.23863C3.75149 2.22846 3.76167 2.22846 3.77184 2.21828C3.78201 2.20811 3.79219 2.20811 3.80236 2.19793C3.81254 2.18776 3.82271 2.18776 3.83289 2.17758C3.84306 2.16741 3.85324 2.16741 3.86341 2.15724C3.87359 2.14706 3.88376 2.14706 3.89394 2.13689C3.90411 2.12671 3.91428 2.12671 3.92446 2.11654C3.93463 2.10636 3.94481 2.10636 3.95498 2.09619C3.96516 2.08601 3.97533 2.08601 3.98551 2.07584L4.01603 2.05549C4.02621 2.04531 4.03638 2.04531 4.04656 2.03514C4.05673 2.02497 4.0669 2.02496 4.07708 2.01479C4.08725 2.00462 4.09743 2.00462 4.1076 1.99444C4.11778 1.98427 4.12795 1.98427 4.13813 1.98427C4.1483 1.98427 4.15848 1.97409 4.16865 1.97409C4.17883 1.97409 4.189 1.96392 4.19917 1.96392L4.2297 1.95374L4.26022 1.94357L4.29075 1.93339C4.30092 1.93339 4.31109 1.92322 4.32127 1.92322C4.33144 1.92322 4.34162 1.91304 4.35179 1.91304C4.36197 1.91304 4.37214 1.90287 4.38232 1.90287L4.41284 1.8927L4.44337 1.88252C4.45354 1.88252 4.46371 1.87235 4.47389 1.87235C4.48406 1.87235 4.49424 1.86217 4.50441 1.86217C4.51459 1.86217 4.52476 1.852 4.53494 1.852C4.54511 1.852 4.55529 1.84182 4.56546 1.84182L4.59598 1.83165C4.60616 1.83165 4.61633 1.82147 4.62651 1.82147C4.63668 1.82147 4.64686 1.8113 4.65703 1.8113C4.66721 1.8113 4.67738 1.80112 4.68756 1.80112C4.69773 1.80112 4.7079 1.79095 4.71808 1.79095L4.7486 1.78077C4.75878 1.78077 4.76895 1.78077 4.77913 1.7706C4.7893 1.7706 4.79948 1.7706 4.80965 1.76042C4.81983 1.76042 4.83 1.76043 4.84017 1.75025C4.85035 1.75025 4.86052 1.75025 4.8707 1.74008L4.90122 1.7299C4.9114 1.7299 4.92157 1.7299 4.93175 1.71973C4.94192 1.71973 4.9521 1.71973 4.96227 1.71973C4.97245 1.71973 4.98262 1.71973 4.99279 1.71973H5.02332H5.05384C5.06402 1.71973 5.07419 1.71973 5.08437 1.71973C5.09454 1.71973 5.10471 1.71973 5.11489 1.71973H5.14541C5.15559 1.71973 5.16576 1.71973 5.17594 1.71973C5.18611 1.71973 5.19629 1.71973 5.20646 1.71973C5.21664 1.71973 5.22681 1.71973 5.23698 1.71973C5.24716 1.71973 5.25733 1.71973 5.26751 1.71973H5.29803C5.30821 1.71973 5.31838 1.71973 5.32856 1.71973C5.33873 1.71973 5.34891 1.71973 5.35908 1.71973C5.36926 1.71973 5.37943 1.71973 5.3896 1.71973H5.40995H5.4303H5.46083H5.92886H5.95938H5.98991H6.0306H6.06113H6.09165H6.13235H6.16287H6.1934H6.2341H6.26462H6.29514H6.33584H6.36637H6.39689H6.42741H6.45794H6.48846H6.51899H6.54951H6.58003H6.61056H6.64108H6.67161H6.70213H6.73265H6.76318H6.7937H6.82422H6.85475H6.88527H6.9158H6.94632H6.97684H7.00737H7.03789H7.06842H7.09894H7.12946H7.15999H7.19051H7.3533H7.38383H7.41435H7.45505H7.48558H7.5161H7.5568H7.58732H7.61784H7.65854H7.68907H7.71959H7.76029H7.79081H7.82134H7.85186H7.88238H7.91291H7.94343H7.97396H8.00448H8.035H8.06553H8.09605H8.12658H8.1571H8.18762H8.21815H8.24867H8.27919H8.30972H8.34024H8.37077H8.40129H8.43181H8.46234H8.49286H8.52339H8.55391H8.58443H8.61496H8.64548H8.676H8.70653H8.8795H8.91002H8.94054H8.98124H9.01177H9.04229H9.08299H9.11351H9.14404H9.18474H9.21526H9.24578H9.27631H9.30683H9.33736H9.36788H9.3984H9.42893H9.45945H9.48997H9.5205H9.55102H9.58155H9.61207H9.64259H9.67312H9.70364H9.73416H9.76469H9.79521H9.82574H9.85626H9.88678H9.91731H9.94783H9.97836H10.0089H10.0394H10.0699H10.1005H10.131H10.3039H10.3345H10.365H10.4057H10.4362H10.4667H10.5074H10.538H10.5685H10.599H10.6295H10.6601H10.6906H10.7211H10.7516H10.7822H10.8127H10.8432H10.8737H10.9042H10.9348H10.9653H10.9958H11.0263H11.0569V19.7491C11.0569 19.9018 11.0467 20.0646 11.0263 20.207C11.0162 20.2782 11.006 20.3494 10.9958 20.4207C10.9856 20.4715 10.9755 20.5326 10.9653 20.5835C10.9551 20.6242 10.9449 20.675 10.9348 20.7157C10.9246 20.7564 10.9144 20.7971 10.9042 20.8277C10.8941 20.8582 10.8839 20.8989 10.8737 20.9294C10.8635 20.9599 10.8534 20.9904 10.8432 21.021C10.833 21.0515 10.8228 21.082 10.8127 21.1125C10.8025 21.1431 10.7923 21.1634 10.7822 21.1939C10.772 21.2245 10.7618 21.2448 10.7516 21.2652C10.7415 21.2855 10.7313 21.316 10.7211 21.3364C10.7109 21.3567 10.7008 21.3771 10.6906 21.4076C10.6804 21.428 10.6702 21.4483 10.6601 21.4687C10.6499 21.489 10.6397 21.5094 10.6295 21.5297C10.6194 21.5501 10.6092 21.5704 10.599 21.5907C10.5888 21.6111 10.5787 21.6314 10.5685 21.6518C10.5583 21.6721 10.5481 21.6925 10.538 21.7027C10.5278 21.723 10.5176 21.7332 10.5074 21.7535C10.4973 21.7739 10.4871 21.7841 10.4769 21.8044C10.4667 21.8248 10.4566 21.8349 10.4464 21.8553C10.4362 21.8756 10.426 21.8858 10.4159 21.9062C10.4057 21.9163 10.3955 21.9367 10.3853 21.9469C10.3752 21.957 10.365 21.9774 10.3548 21.9876C10.3446 21.9977 10.3345 22.0181 10.3243 22.0283C10.3141 22.0384 10.3039 22.0588 10.2938 22.069C10.2836 22.0791 10.2734 22.0995 10.2632 22.1097C10.2531 22.1198 10.2429 22.1402 10.2327 22.1504C10.2225 22.1605 10.2124 22.1707 10.2022 22.1911C10.192 22.2012 10.1818 22.2114 10.1717 22.2318C10.1615 22.2419 10.1513 22.2521 10.1411 22.2623C10.131 22.2724 10.1208 22.2826 10.1106 22.2928C10.1005 22.303 10.0903 22.3131 10.0801 22.3233C10.0699 22.3335 10.0598 22.3437 10.0496 22.3538C10.0394 22.364 10.0292 22.3742 10.0191 22.3844C10.0089 22.3945 9.9987 22.4047 9.98853 22.4149C9.97836 22.4251 9.96818 22.4352 9.95801 22.4454C9.94783 22.4556 9.93766 22.4658 9.92748 22.4759C9.91731 22.4861 9.90713 22.4963 9.89696 22.5065C9.88678 22.5166 9.87661 22.5268 9.86644 22.537C9.85626 22.5472 9.84609 22.5573 9.83591 22.5675C9.82574 22.5777 9.81556 22.5879 9.80539 22.598C9.79521 22.6082 9.78504 22.6184 9.77486 22.6286C9.76469 22.6387 9.75451 22.6489 9.74434 22.6489C9.73417 22.6591 9.72399 22.6693 9.71382 22.6693C9.70364 22.6794 9.69347 22.6896 9.68329 22.6896C9.67312 22.6998 9.66294 22.71 9.65277 22.71C9.64259 22.7201 9.63242 22.7201 9.62224 22.7303C9.61207 22.7405 9.6019 22.7507 9.59172 22.7507C9.58155 22.7608 9.57137 22.7608 9.5612 22.771C9.55102 22.7812 9.54085 22.7812 9.53067 22.7914C9.5205 22.8015 9.51032 22.8015 9.50015 22.8117C9.48997 22.8219 9.4798 22.8219 9.46963 22.8321C9.45945 22.8422 9.44928 22.8422 9.4391 22.8524C9.42893 22.8626 9.41875 22.8626 9.40858 22.8728C9.3984 22.8829 9.38823 22.8829 9.37805 22.8931L9.34753 22.9135C9.33735 22.9236 9.32718 22.9236 9.31701 22.9338C9.30683 22.944 9.29666 22.944 9.28648 22.9541C9.27631 22.9643 9.26613 22.9643 9.25596 22.9745C9.24578 22.9847 9.23561 22.9847 9.22543 22.9948C9.21526 23.005 9.20508 23.005 9.19491 23.0152C9.18473 23.0254 9.17456 23.0254 9.16439 23.0355L9.13386 23.0457L9.10334 23.0559C9.09316 23.0559 9.08299 23.0661 9.07281 23.0661C9.06264 23.0661 9.05246 23.0762 9.04229 23.0762C9.03212 23.0762 9.02194 23.0864 9.01177 23.0864C9.00159 23.0864 8.99142 23.0966 8.98124 23.0966C8.97107 23.0966 8.96089 23.1068 8.95072 23.1068L8.9202 23.1169L8.88967 23.1271C8.8795 23.1271 8.86932 23.1373 8.85915 23.1373C8.84897 23.1373 8.8388 23.1475 8.82862 23.1475C8.81845 23.1475 8.80827 23.1576 8.7981 23.1576L8.76758 23.1678L8.73705 23.178C8.72688 23.178 8.7167 23.1882 8.70653 23.1882C8.69635 23.1882 8.68618 23.1983 8.676 23.1983C8.66583 23.1983 8.65566 23.2085 8.64548 23.2085C8.63531 23.2085 8.62513 23.2187 8.61496 23.2187L8.58443 23.2289L8.55391 23.239C8.54374 23.239 8.53356 23.2492 8.52339 23.2492C8.51321 23.2492 8.50304 23.2492 8.49286 23.2594C8.48269 23.2594 8.47251 23.2594 8.46234 23.2696L8.43181 23.2797C8.42164 23.2797 8.41147 23.2797 8.40129 23.2899C8.39112 23.2899 8.38094 23.2899 8.37077 23.3001C8.36059 23.3001 8.35042 23.3001 8.34024 23.3001H8.30972C8.29954 23.3001 8.28937 23.3001 8.27919 23.3001C8.26902 23.3001 8.25885 23.3001 8.24867 23.3001C8.2385 23.3001 8.22832 23.3001 8.21815 23.3001C8.20797 23.3001 8.1978 23.3001 8.18762 23.3001H8.1571C8.14692 23.3001 8.13675 23.3001 8.12658 23.3001C8.1164 23.3001 8.10623 23.3001 8.09605 23.3001H8.06553H8.035C8.02483 23.3001 8.01466 23.3001 8.00448 23.3001C7.99431 23.3001 7.98413 23.3001 7.97396 23.3001C7.96378 23.3001 7.95361 23.3001 7.94343 23.3001H7.91291C7.90273 23.3001 7.89256 23.3001 7.88238 23.3001H7.85186H7.45505H7.42453H7.394H7.3533H7.32278H7.29226H7.26173H7.23121H7.20069H7.17016H7.13964H7.10911H7.07859H7.04807H7.01754H6.98702H6.95649H6.92597H6.89545H6.86492H6.8344H6.80388H6.77335H6.74283H6.7123H6.68178H6.65126H6.62073H6.59021H6.55968H6.52916H6.49864H6.33584H6.30532H6.2748H6.2341H6.20357H6.17305H6.13235H6.10183H6.0713H6.0306H6.00008H5.96956H5.92886H5.89833H5.86781H5.83729H5.80676H5.77624H5.74572H5.71519H5.68467H5.65414H5.62362H5.5931H5.56257H5.53205H5.50152H5.471H5.44048H5.40995H5.37943H5.34891H5.31838H5.28786H5.25733H5.22681H5.19629H5.16576H5.13524H5.10472H5.07419H5.04367H5.01314H4.98262H4.80965H4.77913H4.7486H4.70791H4.67738H4.64686H4.60616H4.57563H4.54511H4.50441H4.47389H4.44337H4.41284H4.38232H4.35179H4.32127H4.29075H4.26022H4.2297H4.19917H4.16865H4.13813H4.1076H4.07708H4.04656H4.01603H3.98551H3.95498H3.92446H3.89394H3.86341H3.83289H3.80236H3.77184H3.74132H3.71079H3.68027H3.64975H3.61922H3.5887H3.55817H3.38521H3.35468H3.32416H3.28346H3.25294H3.22241H3.18171H3.15119H3.12067H3.07997H3.04944H3.01892H2.9884H2.95787H2.92735H2.89682H2.8663H2.83578H2.80525H2.77473H2.7442H2.71368H2.68316H2.65263H2.62211H2.59159H2.56106H2.53054H2.50001H2.46949H2.43897H2.40844H2.33722V15.6996C2.33722 15.6996 2.36774 15.7098 2.40844 15.72L2.43897 15.7302L2.46949 15.7403L2.50001 15.7505L2.53054 15.7607L2.56106 15.7709L2.59159 15.781L2.62211 15.7912L2.65263 15.8014L2.68316 15.8116L2.71368 15.8217L2.7442 15.8319L2.77473 15.8421L2.80525 15.8523L2.83578 15.8624L2.8663 15.8726L2.89682 15.8828L2.92735 15.893L2.95787 15.9031L2.9884 15.9133L3.01892 15.9235L3.04944 15.9337L3.07997 15.9438L3.11049 15.954L3.14101 15.9642L3.17154 15.9744L3.20206 15.9845L3.23259 15.9947L3.26311 16.0049L3.29363 16.0151L3.32416 16.0252L3.35468 16.0354L3.38521 16.0456L3.41573 16.0558L3.44625 16.0659L3.47678 16.0761L3.5073 16.0863L3.53782 16.0965L3.56835 16.1066H3.59887H3.6294H3.65992H3.69044H3.72097H3.75149H3.78202H3.81254H3.84306H3.87359H3.90411H3.93463H3.96516H3.99568H4.02621H4.05673H4.08725H4.11778H4.1483H4.17882H4.20935H4.23987H4.2704H4.30092H4.33144H4.36197H4.39249H4.42302H4.45354H4.48406H4.51459H4.54511H4.57563H4.60616H4.63668H4.66721H4.69773H4.72825H4.75878H4.7893H4.81983H4.85035H4.88087H4.9114H4.94192H4.97244H5.00297H5.03349H5.06402H5.09454H5.12506H5.15559H5.18611H5.21664H5.24716H5.27768H5.30821H5.33873H5.36926H5.39978H5.4303H5.46083H5.49135H5.52187H5.5524H5.58292H5.5931H5.61345H5.64397H5.67449H5.70502H5.73554H5.76607H5.79659H5.82711H5.85764H5.88816H5.91868H5.94921H5.97973H6.01026H6.04078H6.0713H6.10183H6.13235H6.16287H6.1934H6.22392H6.25445H6.28497H6.31549H6.34602H6.37654H6.40707H6.43759H6.46811H6.49864H6.52916H6.55968H6.59021H6.62073H6.65126H6.68178H6.7123H6.74283H6.77335H6.80388H6.8344H6.86492C6.8751 16.1066 6.88527 16.1066 6.89545 16.0965L6.92597 16.0863L6.95649 16.0761L6.98702 16.0659C6.99719 16.0659 7.00737 16.0659 7.01754 16.0558L7.04807 16.0456C7.05824 16.0456 7.06842 16.0456 7.07859 16.0354C7.08877 16.0354 7.09894 16.0354 7.10911 16.0252L7.13964 16.0151L7.17016 16.0049L7.20069 15.9947C7.21086 15.9947 7.22104 15.9947 7.23121 15.9845L7.26173 15.9744L7.29226 15.9642C7.30243 15.9642 7.31261 15.954 7.32278 15.954L7.3533 15.9438C7.36348 15.9438 7.37365 15.9337 7.38383 15.9337C7.394 15.9337 7.40418 15.9235 7.41435 15.9235L7.44488 15.9133C7.45505 15.9133 7.46523 15.9031 7.4754 15.9031C7.48557 15.9031 7.49575 15.893 7.50592 15.893L7.53645 15.8828C7.54662 15.8828 7.5568 15.8726 7.56697 15.8726C7.57715 15.8726 7.58732 15.8624 7.5975 15.8624L7.62802 15.8523C7.63819 15.8523 7.64837 15.8421 7.65854 15.8421L7.68907 15.8319L7.71959 15.8217C7.72977 15.8217 7.73994 15.8116 7.75011 15.8116L7.78064 15.8014L7.81116 15.7912C7.82134 15.7912 7.83151 15.781 7.84169 15.781C7.85186 15.781 7.86204 15.7709 7.87221 15.7709L7.90273 15.7607C7.91291 15.7607 7.92308 15.7505 7.93326 15.7505C7.94343 15.7505 7.95361 15.7403 7.96378 15.7403C7.97396 15.7403 7.98413 15.7302 7.99431 15.7302L8.02483 15.72L8.05535 15.7098C8.06553 15.7098 8.0757 15.6996 8.08588 15.6996C8.09605 15.6895 8.10623 15.6895 8.1164 15.6793L8.14692 15.6589L8.17745 15.6386C8.18762 15.6284 8.1978 15.6284 8.20797 15.6183C8.21815 15.6081 8.22832 15.6081 8.2385 15.5979C8.24867 15.5877 8.25885 15.5877 8.26902 15.5776C8.27919 15.5674 8.28937 15.5674 8.29954 15.5572C8.30972 15.547 8.31989 15.547 8.33007 15.5369C8.34024 15.5267 8.35042 15.5267 8.36059 15.5165C8.37077 15.5063 8.38094 15.5063 8.39112 15.4962C8.40129 15.486 8.41146 15.486 8.42164 15.4758C8.43181 15.4656 8.44199 15.4656 8.45216 15.4555C8.46234 15.4453 8.47251 15.4453 8.48269 15.4351C8.49286 15.4249 8.50304 15.4249 8.51321 15.4148C8.52339 15.4046 8.53356 15.3944 8.54373 15.3944C8.55391 15.3842 8.56408 15.3741 8.57426 15.3741C8.58443 15.3639 8.59461 15.3537 8.60478 15.3537C8.61496 15.3435 8.62513 15.3334 8.63531 15.3334C8.64548 15.3232 8.65566 15.313 8.66583 15.3028C8.676 15.2927 8.68618 15.2825 8.69635 15.2723C8.70653 15.2621 8.7167 15.252 8.72688 15.2418C8.73705 15.2316 8.74723 15.2214 8.7574 15.2113C8.76758 15.2011 8.77775 15.1909 8.78793 15.1807C8.7981 15.1706 8.80827 15.1604 8.81845 15.1502C8.82862 15.14 8.8388 15.1299 8.84897 15.1197C8.85915 15.1095 8.86932 15.0993 8.8795 15.0892C8.88967 15.079 8.89985 15.0688 8.91002 15.0586C8.9202 15.0485 8.93037 15.0383 8.94054 15.0179C8.95072 15.0078 8.96089 14.9874 8.97107 14.9773C8.98124 14.9671 8.99142 14.9467 9.00159 14.9366C9.01177 14.9264 9.02194 14.906 9.03212 14.8959C9.04229 14.8857 9.05247 14.8653 9.06264 14.8552C9.07282 14.8348 9.08299 14.8246 9.09316 14.8043C9.10334 14.7839 9.11351 14.7738 9.12369 14.7534C9.13386 14.7331 9.14404 14.7229 9.15421 14.7025C9.16439 14.6822 9.17456 14.6618 9.18474 14.6517C9.19491 14.6313 9.20509 14.611 9.21526 14.5906C9.22543 14.5703 9.23561 14.5499 9.24578 14.5296C9.25596 14.5092 9.26613 14.4787 9.27631 14.4583C9.28648 14.438 9.29666 14.4075 9.30683 14.3871C9.31701 14.3566 9.32718 14.3362 9.33736 14.3057C9.34753 14.2752 9.3577 14.2447 9.36788 14.2142C9.37805 14.1735 9.38823 14.1429 9.3984 14.1022C9.40858 14.0615 9.41875 14.0208 9.42893 13.97C9.4391 13.9191 9.44928 13.858 9.45945 13.8072C9.46962 13.7258 9.48997 13.6444 9.48997 13.5528C9.50015 13.4307 9.51032 13.3188 9.51032 13.1967V9.03527H9.48997H9.45945H10.3039H10.2734H10.2429H10.2124H10.1818H10.1513H10.1208H10.0903H10.0598H10.0292H9.9987H9.96818H9.93766H9.90713H9.87661H9.84609H9.81556H9.78504H9.75451H9.72399H9.69347H9.66294H9.63242H9.60189H9.57137H9.54085H9.51032H9.4798H9.44928H9.41875H9.38823H9.3577H9.18474H9.15421H9.12369H9.08299H9.05247H9.02194H8.98124H8.95072H8.9202H8.8795H8.84897H8.81845H8.78793H8.7574H8.72688H8.69635H8.66583H8.63531H8.60478H8.57426H8.54373H8.51321H8.48269H8.45216H8.42164H8.39112H8.36059H8.33007H8.29954H8.26902H8.2385H8.20797H8.17745H8.14692H8.1164H8.08588H8.05535H8.02483H7.99431H7.96378H7.93326H7.76029H7.72977H7.69924H7.65854H7.62802H7.5975H7.5568H7.52627H7.49575H7.45505H7.42453H7.394H7.3533H7.32278H7.29226V13.217C7.29226 13.2781 7.29226 13.3493 7.28208 13.4104C7.27191 13.4918 7.26173 13.5732 7.25156 13.6444C7.24138 13.6952 7.23121 13.7359 7.22103 13.7868C7.21086 13.8275 7.20069 13.858 7.19051 13.8886C7.18034 13.9191 7.17016 13.9496 7.15999 13.9801C7.14981 14.0107 7.13964 14.031 7.12946 14.0514C7.11929 14.0717 7.10911 14.0921 7.09894 14.1226C7.08876 14.1429 7.07859 14.1633 7.06842 14.1836C7.05824 14.204 7.04807 14.2243 7.03789 14.2345C7.02772 14.2549 7.01754 14.265 7.00737 14.2854C6.99719 14.3057 6.98702 14.3159 6.97684 14.3362C6.96667 14.3464 6.95649 14.3668 6.94632 14.3769C6.93615 14.3871 6.92597 14.4075 6.9158 14.4176C6.90562 14.4278 6.89545 14.438 6.88527 14.4583C6.8751 14.4685 6.86492 14.4787 6.85475 14.4889C6.84457 14.499 6.8344 14.5092 6.82422 14.5194C6.81405 14.5296 6.80388 14.5397 6.7937 14.5499C6.78353 14.5601 6.77335 14.5703 6.76318 14.5804C6.753 14.5906 6.74283 14.6008 6.73265 14.611C6.72248 14.6211 6.7123 14.6313 6.70213 14.6415C6.69195 14.6517 6.68178 14.6618 6.67161 14.6618C6.66143 14.672 6.65126 14.6822 6.64108 14.6822C6.63091 14.6924 6.62073 14.6924 6.61056 14.7025C6.60038 14.7127 6.59021 14.7127 6.58003 14.7229C6.56986 14.7331 6.55968 14.7331 6.54951 14.7432C6.53934 14.7534 6.52916 14.7534 6.51899 14.7636C6.50881 14.7738 6.49864 14.7738 6.48846 14.7839C6.47829 14.7941 6.46811 14.7941 6.45794 14.8043C6.44776 14.8145 6.43759 14.8145 6.42741 14.8246C6.41724 14.8348 6.40707 14.8348 6.39689 14.8348C6.38672 14.8348 6.37654 14.845 6.36637 14.845C6.35619 14.845 6.34602 14.8552 6.33584 14.8552C6.32567 14.8552 6.31549 14.8653 6.30532 14.8653C6.29515 14.8653 6.28497 14.8755 6.2748 14.8755C6.26462 14.8755 6.25445 14.8857 6.24427 14.8857C6.2341 14.8857 6.22392 14.8959 6.21375 14.8959C6.20357 14.8959 6.1934 14.906 6.18322 14.906C6.17305 14.906 6.16287 14.9162 6.1527 14.9162C6.14253 14.9162 6.13235 14.9264 6.12218 14.9264C6.112 14.9264 6.10183 14.9366 6.09165 14.9366C6.08148 14.9366 6.0713 14.9467 6.06113 14.9467C6.05095 14.9467 6.04078 14.9467 6.0306 14.9569C6.02043 14.9569 6.01026 14.9569 6.00008 14.9671C5.98991 14.9671 5.97973 14.9671 5.96956 14.9773L5.93903 14.9874C5.92886 14.9874 5.91868 14.9874 5.90851 14.9874C5.89833 14.9874 5.88816 14.9874 5.87799 14.9874H5.84746C5.83729 14.9874 5.82711 14.9874 5.81694 14.9874C5.80676 14.9874 5.79659 14.9874 5.78641 14.9874C5.77624 14.9874 5.76606 14.9874 5.75589 14.9874C5.74572 14.9874 5.73554 14.9874 5.72537 14.9874C5.71519 14.9874 5.70502 14.9874 5.69484 14.9874C5.68467 14.9874 5.67449 14.9874 5.66432 14.9874H5.63379C5.62362 14.9874 5.61345 14.9874 5.60327 14.9874H5.5931H5.57275H5.54222H5.5117H5.48118H5.45065H5.42013H5.3896H5.35908H5.32856H5.29803H5.26751H5.23698H5.20646H5.17594H5.14541H5.11489H5.08437H5.05384H5.02332H4.99279H4.96227H4.93175H4.90122H4.8707L4.84017 14.9773L4.80965 14.9671L4.77913 14.9569L4.7486 14.9467L4.71808 14.9366L4.68756 14.9264L4.65703 14.9162L4.62651 14.906L4.59598 14.8959L4.56546 14.8857L4.53494 14.8755L4.50441 14.8653L4.47389 14.8552L4.44337 14.845L4.41284 14.8348L4.38232 14.8246L4.35179 14.8145L4.32127 14.8043L4.29075 14.7941L4.26022 14.7839L4.2297 14.7738L4.19917 14.7636L4.16865 14.7534L4.13813 14.7432L4.1076 14.7331L4.07708 14.7229L4.04656 14.7127L4.01603 14.7025L3.98551 14.6924L3.95498 14.6822L3.92446 14.672L3.89394 14.6618L3.86341 14.6517L3.83289 14.6415L3.80236 14.6313L3.77184 14.6211L3.74132 14.611L3.71079 14.6008L3.68027 14.5906L3.64975 14.5804L3.61922 14.5703L3.07997 14.5499L3.04944 14.5397L3.01892 14.5296L2.9884 14.5194L2.95787 14.5092L2.92735 14.499L2.89682 14.4889L2.8663 14.4787L2.83578 14.4685L2.80525 14.4583L2.77473 14.4482L2.7442 14.438L2.71368 14.4278L2.68316 14.4176L2.65263 14.4075L2.62211 14.3871L2.59159 14.3668L2.56106 14.3464L2.53054 14.3261L2.50001 14.3057L2.46949 14.2854L2.43897 14.265L2.3067 14.2243Z" fill="url(#paint1_linear_329_411)"/>
<path d="M12.2881 9.95099C12.2678 9.97134 12.2373 9.99169 12.2169 10.012V5.29102C12.2169 5.03665 12.2474 4.79246 12.2881 4.55844C12.2983 4.50757 12.3085 4.4567 12.3187 4.40582C12.3288 4.36513 12.339 4.32443 12.3492 4.27356C12.3594 4.23286 12.3695 4.20233 12.3797 4.16163C12.3899 4.13111 12.4001 4.09041 12.4102 4.05989C12.4204 4.02936 12.4306 3.99884 12.4408 3.96832C12.4509 3.93779 12.4611 3.90727 12.4713 3.88692C12.4815 3.8564 12.4916 3.83605 12.5018 3.80552C12.512 3.78517 12.5222 3.75465 12.5323 3.7343C12.5425 3.71395 12.5527 3.68343 12.5629 3.66308C12.573 3.64273 12.5832 3.62238 12.5934 3.59186C12.6036 3.57151 12.6137 3.55116 12.6239 3.53081C12.6341 3.51046 12.6443 3.49011 12.6544 3.46976C12.6646 3.44941 12.6748 3.42906 12.685 3.40871C12.6951 3.38836 12.7053 3.36801 12.7155 3.35784C12.7256 3.33749 12.7358 3.31714 12.746 3.30697C12.7562 3.28662 12.7663 3.27644 12.7765 3.25609C12.7867 3.23574 12.7969 3.22557 12.807 3.20522C12.8172 3.18487 12.8274 3.1747 12.8376 3.15435C12.8477 3.134 12.8579 3.12382 12.8681 3.10347C12.8783 3.0933 12.8884 3.07295 12.8986 3.06278C12.9088 3.0526 12.919 3.03225 12.9291 3.02208C12.9393 3.0119 12.9495 2.99155 12.9597 2.98138C12.9698 2.9712 12.98 2.95086 12.9902 2.94068C13.0004 2.93051 13.0105 2.91016 13.0207 2.89998C13.0309 2.88981 13.0411 2.86946 13.0512 2.85928C13.0614 2.84911 13.0716 2.83893 13.0818 2.81859C13.0919 2.80841 13.1021 2.79824 13.1123 2.77789C13.1225 2.76771 13.1326 2.75754 13.1428 2.74736C13.153 2.73719 13.1632 2.72701 13.1733 2.71684C13.1835 2.70666 13.1937 2.69649 13.2039 2.68632C13.214 2.67614 13.2242 2.66597 13.2344 2.65579C13.2446 2.64562 13.2547 2.63544 13.2649 2.62527C13.2751 2.61509 13.2853 2.60492 13.2954 2.59474C13.3056 2.58457 13.3158 2.57439 13.326 2.56422C13.3361 2.55405 13.3463 2.54387 13.3565 2.5337C13.3666 2.52352 13.3768 2.51335 13.387 2.50317C13.3972 2.493 13.4073 2.48282 13.4175 2.47265C13.4277 2.46247 13.4379 2.4523 13.448 2.44212C13.4582 2.43195 13.4684 2.42178 13.4786 2.4116C13.4887 2.40143 13.4989 2.39125 13.5091 2.38108C13.5193 2.3709 13.5294 2.36073 13.5396 2.36073C13.5498 2.35055 13.56 2.34038 13.5701 2.34038C13.5803 2.3302 13.5905 2.32003 13.6007 2.32003C13.6108 2.30985 13.621 2.29968 13.6312 2.29968C13.6414 2.28951 13.6515 2.27933 13.6617 2.27933C13.6719 2.26916 13.6821 2.26916 13.6922 2.25898C13.7024 2.24881 13.7126 2.24881 13.7228 2.23863C13.7329 2.22846 13.7431 2.22846 13.7533 2.21828C13.7635 2.20811 13.7736 2.20811 13.7838 2.19793C13.794 2.18776 13.8042 2.18776 13.8143 2.17758C13.8245 2.16741 13.8347 2.16741 13.8449 2.15724C13.855 2.14706 13.8652 2.14706 13.8754 2.13689C13.8856 2.12671 13.8957 2.12671 13.9059 2.11654C13.9161 2.10636 13.9263 2.10636 13.9364 2.09619L13.967 2.07584L13.9975 2.05549C14.0077 2.04531 14.0178 2.04531 14.028 2.03514C14.0382 2.02497 14.0483 2.02496 14.0585 2.01479C14.0687 2.00462 14.0789 2.00462 14.089 1.99444C14.0992 1.98427 14.1094 1.98427 14.1196 1.98427C14.1297 1.98427 14.1399 1.97409 14.1501 1.97409C14.1603 1.97409 14.1704 1.96392 14.1806 1.96392L14.2111 1.95374C14.2213 1.95374 14.2315 1.94357 14.2417 1.94357C14.2518 1.94357 14.262 1.93339 14.2722 1.93339C14.2824 1.93339 14.2925 1.92322 14.3027 1.92322C14.3129 1.92322 14.3231 1.91304 14.3332 1.91304C14.3434 1.91304 14.3536 1.90287 14.3638 1.90287C14.3739 1.90287 14.3841 1.8927 14.3943 1.8927L14.4248 1.88252C14.435 1.88252 14.4452 1.87235 14.4553 1.87235C14.4655 1.87235 14.4757 1.86217 14.4859 1.86217C14.496 1.86217 14.5062 1.852 14.5164 1.852C14.5266 1.852 14.5367 1.84182 14.5469 1.84182L14.5774 1.83165C14.5876 1.83165 14.5978 1.82147 14.608 1.82147C14.6181 1.82147 14.6283 1.8113 14.6385 1.8113C14.6487 1.8113 14.6588 1.80112 14.669 1.80112C14.6792 1.80112 14.6893 1.79095 14.6995 1.79095L14.73 1.78077C14.7402 1.78077 14.7504 1.78077 14.7606 1.7706C14.7707 1.7706 14.7809 1.7706 14.7911 1.76042C14.8013 1.76042 14.8114 1.76043 14.8216 1.75025L14.8521 1.74008L14.8827 1.7299C14.8928 1.7299 14.903 1.7299 14.9132 1.71973C14.9234 1.71973 14.9335 1.71973 14.9437 1.71973C14.9539 1.71973 14.9641 1.71973 14.9742 1.71973H15.0048H15.0353C15.0455 1.71973 15.0556 1.71973 15.0658 1.71973C15.076 1.71973 15.0862 1.71973 15.0963 1.71973H15.1269C15.137 1.71973 15.1472 1.71973 15.1574 1.71973C15.1676 1.71973 15.1777 1.71973 15.1879 1.71973C15.1981 1.71973 15.2083 1.71973 15.2184 1.71973C15.2286 1.71973 15.2388 1.71973 15.249 1.71973H15.2795C15.2897 1.71973 15.2998 1.71973 15.31 1.71973C15.3202 1.71973 15.3304 1.71973 15.3405 1.71973C15.3507 1.71973 15.3609 1.71973 15.371 1.71973H15.3914H15.4117H15.4423H15.4728H15.5033H15.5338H15.5644H15.5949H15.6254H15.6559H15.6865H15.717H15.7475H15.778H15.8086H15.8391H15.8696H15.9001H15.9307H15.9612H15.9917H16.0222H16.0527H16.0833H16.1138H16.1443H16.1748H16.2054H16.2359H16.2664H16.2969H16.3275H16.358H16.3885H16.419H16.4496H16.4801H16.5106H16.5411H16.5717H16.6022H16.6327H16.6632H16.6937H16.7243H16.7548H16.7853H16.8158H16.8464H16.8769H16.9074H16.9379H16.9685H16.999H17.0295H17.06H17.0906H17.1211H17.1516H17.1821H17.2127H17.2432H17.2737H17.3042H17.3348H17.3653H17.3958H17.4263H17.4568H17.4874H17.5179H17.5484H17.5789H17.6095H17.64H17.6705H17.701H17.7316H17.7621H17.7926H17.8231H17.8537H17.8842H17.9147H17.9452H17.9757H18.0063H18.0368H18.0673H18.0978H18.1284H18.1589H18.1894H18.2199H18.2505H18.281H18.3115H18.342H18.3726H18.4031H18.4336H18.4641H18.4947H18.5252H18.5557H18.5862H18.6168H18.6473H18.6778H18.7083H18.7388H18.7694H18.7999H18.8304H18.8609H18.8915H18.922H18.9525H18.983H19.0136H19.0441H19.0746H19.1051H19.1357H19.1662H19.1967H19.2272H19.2578H19.2883H19.3188H19.3493H19.3798H19.4104H19.4409H19.4714H19.5019H19.5325H19.563H19.5935H19.624H19.6546H19.6851H19.7156H19.7461H19.7767H19.8072H19.8377H19.8682H19.8988H19.9293H19.9598H19.9903H20.0208H20.0514V19.7491C20.0514 19.9018 20.0412 20.0646 20.0208 20.207C20.0107 20.2782 20.0005 20.3494 19.9903 20.4207C19.9801 20.4715 19.97 20.5326 19.9598 20.5835C19.9496 20.6242 19.9395 20.675 19.9293 20.7157C19.9191 20.7564 19.9089 20.7971 19.8988 20.8277C19.8886 20.8582 19.8784 20.8989 19.8682 20.9294C19.8581 20.9599 19.8479 20.9904 19.8377 21.021C19.8275 21.0515 19.8174 21.082 19.8072 21.1125C19.797 21.1431 19.7868 21.1634 19.7767 21.1939C19.7665 21.2245 19.7563 21.2448 19.7461 21.2652C19.736 21.2855 19.7258 21.316 19.7156 21.3364C19.7054 21.3567 19.6953 21.3771 19.6851 21.4076C19.6749 21.428 19.6647 21.4483 19.6546 21.4687C19.6444 21.489 19.6342 21.5094 19.624 21.5297C19.6139 21.5501 19.6037 21.5704 19.5935 21.5907C19.5833 21.6111 19.5732 21.6314 19.563 21.6518C19.5528 21.6721 19.5426 21.6925 19.5325 21.7027C19.5223 21.723 19.5121 21.7332 19.5019 21.7535C19.4918 21.7739 19.4816 21.7841 19.4714 21.8044C19.4612 21.8248 19.4511 21.8349 19.4409 21.8553C19.4307 21.8756 19.4205 21.8858 19.4104 21.9062C19.4002 21.9163 19.39 21.9367 19.3798 21.9469C19.3697 21.957 19.3595 21.9774 19.3493 21.9876C19.3391 21.9977 19.329 22.0181 19.3188 22.0283C19.3086 22.0384 19.2985 22.0588 19.2883 22.069C19.2781 22.0791 19.2679 22.0995 19.2578 22.1097C19.2476 22.1198 19.2374 22.1402 19.2272 22.1504C19.2171 22.1605 19.2069 22.1707 19.1967 22.1911C19.1865 22.2012 19.1764 22.2114 19.1662 22.2318C19.156 22.2419 19.1458 22.2521 19.1357 22.2623C19.1255 22.2724 19.1153 22.2826 19.1051 22.2928C19.095 22.303 19.0848 22.3131 19.0746 22.3233C19.0644 22.3335 19.0543 22.3437 19.0441 22.3538C19.0339 22.364 19.0237 22.3742 19.0136 22.3844C19.0034 22.3945 18.9932 22.4047 18.983 22.4149C18.9729 22.4251 18.9627 22.4352 18.9525 22.4454C18.9423 22.4556 18.9322 22.4658 18.922 22.4759C18.9118 22.4861 18.9016 22.4963 18.8915 22.5065C18.8813 22.5166 18.8711 22.5268 18.8609 22.537C18.8508 22.5472 18.8406 22.5573 18.8304 22.5675C18.8202 22.5777 18.8101 22.5879 18.7999 22.598C18.7897 22.6082 18.7795 22.6184 18.7694 22.6286C18.7592 22.6387 18.749 22.6489 18.7388 22.6489C18.7287 22.6591 18.7185 22.6693 18.7083 22.6693C18.6981 22.6794 18.688 22.6896 18.6778 22.6896C18.6676 22.6998 18.6574 22.71 18.6473 22.71C18.6371 22.7201 18.6269 22.7201 18.6168 22.7303C18.6066 22.7405 18.5964 22.7507 18.5862 22.7507C18.5761 22.7608 18.5659 22.7608 18.5557 22.771C18.5455 22.7812 18.5354 22.7812 18.5252 22.7914C18.515 22.8015 18.5048 22.8015 18.4947 22.8117C18.4845 22.8219 18.4743 22.8219 18.4641 22.8321C18.454 22.8422 18.4438 22.8422 18.4336 22.8524L18.4031 22.8728L18.3726 22.8931L18.342 22.9135C18.3319 22.9236 18.3217 22.9236 18.3115 22.9338C18.3013 22.944 18.2912 22.944 18.281 22.9541C18.2708 22.9643 18.2606 22.9643 18.2505 22.9745C18.2403 22.9847 18.2301 22.9847 18.2199 22.9948C18.2098 23.005 18.1996 23.005 18.1894 23.0152C18.1792 23.0254 18.1691 23.0254 18.1589 23.0355L18.1284 23.0457L18.0978 23.0559L18.0673 23.0661C18.0571 23.0661 18.047 23.0762 18.0368 23.0762C18.0266 23.0762 18.0164 23.0864 18.0063 23.0864C17.9961 23.0864 17.9859 23.0966 17.9757 23.0966C17.9656 23.0966 17.9554 23.1068 17.9452 23.1068L17.9147 23.1169L17.8842 23.1271C17.874 23.1271 17.8638 23.1373 17.8537 23.1373C17.8435 23.1373 17.8333 23.1475 17.8231 23.1475C17.813 23.1475 17.8028 23.1576 17.7926 23.1576L17.7621 23.1678L17.7316 23.178C17.7214 23.178 17.7112 23.1882 17.701 23.1882C17.6909 23.1882 17.6807 23.1983 17.6705 23.1983C17.6603 23.1983 17.6502 23.2085 17.64 23.2085C17.6298 23.2085 17.6196 23.2187 17.6095 23.2187L17.5789 23.2289L17.5484 23.239C17.5382 23.239 17.5281 23.2492 17.5179 23.2492C17.5077 23.2492 17.4975 23.2492 17.4874 23.2594L17.4568 23.2696L17.4263 23.2797C17.4161 23.2797 17.406 23.2797 17.3958 23.2899C17.3856 23.3001 17.3754 23.2899 17.3653 23.3001C17.3551 23.3001 17.3449 23.3001 17.3348 23.3001H17.3042C17.2941 23.3001 17.2839 23.3001 17.2737 23.3001C17.2635 23.3001 17.2534 23.3001 17.2432 23.3001C17.233 23.3001 17.2228 23.3001 17.2127 23.3001C17.2025 23.3001 17.1923 23.3001 17.1821 23.3001H17.1516C17.1414 23.3001 17.1313 23.3001 17.1211 23.3001C17.1109 23.3001 17.1007 23.3001 17.0906 23.3001H17.06H17.0295C17.0193 23.3001 17.0092 23.3001 16.999 23.3001C16.9888 23.3001 16.9786 23.3001 16.9685 23.3001C16.9583 23.3001 16.9481 23.3001 16.9379 23.3001H16.9074C16.8972 23.3001 16.8871 23.3001 16.8769 23.3001H16.8464H17.4263H17.3958H17.3653H17.3246H17.2941H17.2635H17.2228H17.1923H17.1618H17.1313H17.1007H17.0702H17.0397H17.0092H16.9786H16.9481H16.9176H16.8871H16.8565H16.826H16.7955H16.765H16.7344H16.7039H16.6734H16.6429H16.6124H16.5818H16.5513H16.5208H16.4903H16.4597H16.4292H16.3987H16.3682H16.3376H16.3071H16.2766H16.1036H16.0731H16.0426H16.0019H15.9714H15.9408H15.9001H15.8696H15.8391H15.7984H15.7679H15.7373H15.7068H15.6763H15.6458H15.6152H15.5847H15.5542H15.5237H15.4931H15.4626H15.4321H15.4016H15.371H15.3405H15.31H15.2795H15.249H15.2184H15.1879H15.1574H15.1269H15.0963H15.0658H15.0353H15.0048H14.9742H14.9437H14.9132H14.8827H14.8521H14.6792H14.6487H14.6181H14.5774H14.5469H14.5164H14.4757H14.4452H14.4146H14.3739H14.3434H14.3129H14.2824H14.2518H14.2213H14.1908H14.1603H14.1297H14.0992H14.0687H14.0382H14.0077H13.9771H13.9466H13.9161H13.8856H13.855H13.8245H13.794H13.7635H13.7329H13.7024H13.6719H13.6414H13.6108H13.5803H13.5498H13.5193H13.4887H13.4582H13.4277H13.2547H13.2242H13.1937H13.153H13.1225H13.0919H13.0512H13.0207H12.9902H12.9495H12.919H12.8884H12.8579H12.8274H12.7969H12.7663H12.7358H12.7053H12.6748H12.6443H12.6137H12.5832H12.5527H12.5222H12.4916H12.4611H12.4306H12.4001H12.3695H12.2983V14.9773C12.3187 14.9976 12.3492 15.0179 12.3695 15.0383C12.3797 15.0485 12.3899 15.0586 12.4001 15.0688C12.4102 15.079 12.4204 15.0892 12.4306 15.0993C12.4408 15.1095 12.4509 15.1197 12.4611 15.1299C12.4713 15.14 12.4815 15.1502 12.4916 15.1604C12.5018 15.1706 12.512 15.1807 12.5222 15.1807C12.5323 15.1909 12.5425 15.2011 12.5527 15.2011L12.5832 15.2214C12.5934 15.2316 12.6036 15.2418 12.6137 15.2418L12.6443 15.2621C12.6544 15.2723 12.6646 15.2723 12.6748 15.2825C12.685 15.2927 12.6951 15.2927 12.7053 15.3028L12.7358 15.3232C12.746 15.3334 12.7562 15.3334 12.7663 15.3435C12.7765 15.3537 12.7867 15.3537 12.7969 15.3639L12.8274 15.3842L12.8579 15.4046L12.8884 15.4249C12.8986 15.4351 12.9088 15.4351 12.919 15.4453C12.9291 15.4555 12.9393 15.4555 12.9495 15.4656L12.98 15.486L13.0105 15.5063L13.0411 15.5267C13.0512 15.5369 13.0614 15.5369 13.0716 15.547L13.1021 15.5674L13.1326 15.5877L13.1632 15.6081L13.1937 15.6183L13.2242 15.6284L13.2547 15.6386L13.2853 15.6488L13.3158 15.6589L13.3463 15.6691L13.3768 15.6793C13.387 15.6793 13.3972 15.6895 13.4073 15.6895L13.4379 15.6996C13.448 15.6996 13.4582 15.7098 13.4684 15.7098C13.4786 15.7098 13.4887 15.72 13.4989 15.72L13.5294 15.7302L13.56 15.7403C13.5701 15.7403 13.5803 15.7505 13.5905 15.7505C13.6007 15.7505 13.6108 15.7607 13.621 15.7607L13.6515 15.7709L13.6821 15.781L13.7126 15.7912L13.7431 15.8014L13.7736 15.8116L13.8042 15.8217L13.8347 15.8319L13.8652 15.8421L13.8957 15.8523L13.9263 15.8624L13.9568 15.8726L13.9873 15.8828L14.0178 15.893L14.0483 15.9031L14.0789 15.9133L14.1094 15.9235L14.1399 15.9337L14.1704 15.9438L14.201 15.954L14.2315 15.9642L14.262 15.9744L14.2925 15.9845L14.3231 15.9947L14.3536 16.0049L14.3841 16.0151L14.4146 16.0252L14.4452 16.0354L14.4757 16.0456L14.5062 16.0558L14.5367 16.0659L14.5673 16.0761L14.5978 16.0863L14.6283 16.0965H14.6588H14.6894H14.7199H14.7504H14.7809H14.8114H14.842H14.8725H14.903H14.9335H14.9641H14.9946H15.0251H15.0556H15.0862H15.1167H15.1472H15.1777H15.2083H15.2388H15.2693H15.2998H15.3303H15.3609H15.3914H15.4219H15.4524H15.483H15.5135H15.544H15.5745H15.6051H15.6356H15.6661H15.6966H15.7272H15.7577H15.7882H15.8187H15.8493H15.8798H15.9103H15.9408H15.9714H16.0019H16.0324H16.0629H16.0934H16.124H16.1545H16.185H16.2155H16.2461H16.2766H16.3071H16.3376H16.3682H16.3987H16.4292H16.4597H16.4903H16.5208H16.5513H16.5818H16.6124H16.6429H16.6734H16.7039H16.7344H16.7548H16.7751H16.8057H16.8362H16.8667H16.8972H16.9278H16.9583H16.9888H17.0193H17.0499H17.0804H17.1109H17.1414H17.172H17.2025H17.233H17.2635H17.2941H17.3246H17.3551H17.3856H17.4161H17.4467H17.4772H17.5077H17.5382H17.5688H17.5993H17.6298H17.6603H17.6909H17.7214H17.7519H17.7824H17.813H17.8435H17.874L17.9045 16.0863L17.9351 16.0761L17.9656 16.0659L17.9961 16.0558L18.0266 16.0456L18.0571 16.0354L18.0877 16.0252L18.1182 16.0151L18.1487 16.0049L18.1792 15.9947L18.2098 15.9845L18.2403 15.9744L18.2708 15.9642L18.3013 15.954L18.3319 15.9438L18.3624 15.9337L18.3929 15.9235L18.4234 15.9133L18.454 15.9031L18.4845 15.893L18.515 15.8828L18.5455 15.8726L18.5761 15.8624L18.6066 15.8523L18.6371 15.8421L18.6676 15.8319L18.6981 15.8217L18.7287 15.8116L18.7592 15.8014L18.7897 15.7912L18.8202 15.781L18.8508 15.7709L18.8813 15.7607L18.9118 15.7505L18.9423 15.7403L18.9729 15.7302L19.0034 15.72L19.0339 15.7098L19.0644 15.6996L19.095 15.6895L19.1255 15.6793L19.156 15.6691L19.1865 15.6589L19.2171 15.6488L19.2476 15.6386V14.1124L19.2171 14.1328L19.1865 14.1531L19.156 14.1735L19.1255 14.1938L19.095 14.2142L19.0644 14.2345L19.0339 14.2549L19.0034 14.2752L18.9729 14.2956L18.9423 14.3159L18.9118 14.3362L18.8813 14.3566L18.8508 14.3769L18.8202 14.3871L18.7897 14.3973L18.7592 14.4075L18.7287 14.4176L18.6981 14.4278L18.6676 14.438L18.6371 14.4482L18.6066 14.4583L18.5761 14.4685L18.5455 14.4787L18.515 14.4889L18.4845 14.499L18.454 14.5092L18.4234 14.5194L18.3929 14.5296L18.3624 14.5397L18.3319 14.5499L18.3013 14.5601L18.2708 14.5703L18.2403 14.5804L18.2098 14.5906L18.1792 14.6008L18.1487 14.611L18.1182 14.6211L18.0877 14.6313L18.0571 14.6415L18.0266 14.6517L17.9961 14.6618L17.9656 14.672L17.9351 14.6822L17.9045 14.6924L17.874 14.7025L17.8435 14.7127L17.813 14.7229L17.7824 14.7331L17.7519 14.7432L17.7214 14.7534L17.6909 14.7636L17.6603 14.7738L17.6298 14.7839L17.5993 14.7941L17.5688 14.8043L17.5382 14.8145L17.5077 14.8246L17.4772 14.8348L17.4467 14.845L17.4161 14.8552L17.3856 14.8653L17.3551 14.8755L17.3246 14.8857L17.2941 14.8959L17.2635 14.906H17.233H17.2025H17.172H17.1414H17.1109H17.0804H17.0499H17.0193H16.9888H16.9583H16.9278H16.8972H16.8667H16.8464H16.8362H16.8057H16.7751H16.7446H16.7141H16.6836H16.653H16.6225H16.592H16.5615H16.531C16.5208 14.906 16.5106 14.906 16.5004 14.906H16.4699H16.4394H16.4089H16.3783C16.3682 14.906 16.358 14.906 16.3478 14.906C16.3376 14.906 16.3275 14.906 16.3173 14.906H16.2868H16.2562H16.2257H16.1952C16.185 14.906 16.1748 14.906 16.1647 14.906C16.1545 14.906 16.1443 14.906 16.1341 14.906H16.1036H16.0731H16.0426H16.0121H15.9815C15.9714 14.906 15.9612 14.906 15.951 14.8959C15.9408 14.8959 15.9307 14.8959 15.9205 14.8857C15.9103 14.8857 15.9001 14.8857 15.89 14.8755C15.8798 14.8755 15.8696 14.8755 15.8594 14.8653C15.8493 14.8653 15.8391 14.8653 15.8289 14.8552C15.8187 14.8552 15.8086 14.8552 15.7984 14.845C15.7882 14.845 15.778 14.845 15.7679 14.8348C15.7577 14.8348 15.7475 14.8246 15.7373 14.8246L15.7068 14.8145C15.6966 14.8145 15.6865 14.8043 15.6763 14.8043C15.6661 14.8043 15.6559 14.7941 15.6458 14.7941C15.6356 14.7941 15.6254 14.7839 15.6152 14.7839C15.6051 14.7839 15.5949 14.7738 15.5847 14.7738C15.5745 14.7738 15.5644 14.7636 15.5542 14.7636C15.544 14.7636 15.5338 14.7534 15.5237 14.7534C15.5135 14.7534 15.5033 14.7432 15.4931 14.7432C15.483 14.7432 15.4728 14.7331 15.4626 14.7331C15.4524 14.7331 15.4423 14.7229 15.4321 14.7229C15.4219 14.7229 15.4117 14.7127 15.4016 14.7127C15.3914 14.7127 15.3812 14.7025 15.371 14.7025C15.3609 14.7025 15.3507 14.6924 15.3405 14.6924C15.3304 14.6924 15.3202 14.6822 15.31 14.6822C15.2998 14.6822 15.2897 14.672 15.2795 14.672C15.2693 14.6618 15.2591 14.6618 15.249 14.6517C15.2388 14.6415 15.2286 14.6415 15.2184 14.6313C15.2083 14.6211 15.1981 14.6211 15.1879 14.611C15.1777 14.6008 15.1676 14.6008 15.1574 14.5906C15.1472 14.5804 15.137 14.5804 15.1269 14.5703C15.1167 14.5601 15.1065 14.5601 15.0963 14.5499C15.0862 14.5397 15.076 14.5397 15.0658 14.5296C15.0556 14.5194 15.0455 14.5194 15.0353 14.5092C15.0251 14.499 15.0149 14.499 15.0048 14.4889C14.9946 14.4787 14.9844 14.4787 14.9742 14.4685C14.9641 14.4583 14.9539 14.4482 14.9437 14.4482C14.9335 14.438 14.9234 14.4278 14.9132 14.4278C14.903 14.4176 14.8928 14.4075 14.8827 14.4075C14.8725 14.3973 14.8623 14.3871 14.8521 14.3769C14.842 14.3668 14.8318 14.3566 14.8216 14.3464C14.8114 14.3362 14.8013 14.3261 14.7911 14.3159C14.7809 14.3057 14.7707 14.2955 14.7606 14.2854C14.7504 14.2752 14.7402 14.265 14.73 14.2549C14.7199 14.2447 14.7097 14.2345 14.6995 14.2243C14.6893 14.2142 14.6792 14.204 14.669 14.1938C14.6588 14.1836 14.6487 14.1735 14.6385 14.1531C14.6283 14.1429 14.6181 14.1226 14.608 14.1124C14.5978 14.1022 14.5876 14.0819 14.5774 14.0717C14.5673 14.0615 14.5571 14.0412 14.5469 14.031C14.5367 14.0208 14.5266 14.0005 14.5164 13.9903C14.5062 13.97 14.496 13.9598 14.4859 13.9394C14.4757 13.9191 14.4655 13.9089 14.4553 13.8886C14.4452 13.8682 14.435 13.8479 14.4248 13.8377C14.4146 13.8173 14.4045 13.797 14.3943 13.7766C14.3841 13.7563 14.3739 13.7359 14.3638 13.7156C14.3536 13.6952 14.3434 13.6749 14.3332 13.6444C14.3231 13.624 14.3129 13.5935 14.3027 13.5732C14.2925 13.5426 14.2824 13.5223 14.2722 13.4918C14.262 13.4612 14.2518 13.4307 14.2417 13.4002C14.2315 13.3697 14.2213 13.329 14.2111 13.2984C14.201 13.2577 14.1908 13.217 14.1806 13.1662C14.1704 13.1153 14.1603 13.0542 14.1501 13.0034C14.1399 12.922 14.1196 12.8406 14.1196 12.749C14.1094 12.6473 14.1094 12.5455 14.1094 12.4336C14.1094 12.3217 14.1094 12.2199 14.1196 12.1182C14.1297 12.0266 14.1399 11.9452 14.1501 11.8638C14.1603 11.8129 14.1704 11.7519 14.1806 11.701C14.1908 11.6603 14.201 11.6196 14.2111 11.5688C14.2213 11.5281 14.2315 11.4975 14.2417 11.467C14.2518 11.4365 14.262 11.406 14.2722 11.3754C14.2824 11.3449 14.2925 11.3246 14.3027 11.294C14.3129 11.2737 14.3231 11.2432 14.3332 11.2228C14.3434 11.2025 14.3536 11.1821 14.3638 11.1516C14.3739 11.1312 14.3841 11.1109 14.3943 11.0905C14.4045 11.0702 14.4146 11.0498 14.4248 11.0295C14.435 11.0091 14.4452 10.9888 14.4553 10.9786C14.4655 10.9583 14.4757 10.9481 14.4859 10.9278C14.496 10.9074 14.5062 10.8972 14.5164 10.8769C14.5266 10.8667 14.5367 10.8464 14.5469 10.8362C14.5571 10.826 14.5673 10.8057 14.5774 10.7955C14.5876 10.7853 14.5978 10.765 14.608 10.7548C14.6181 10.7446 14.6283 10.7243 14.6385 10.7141C14.6487 10.7039 14.6588 10.6937 14.669 10.6734C14.6792 10.6632 14.6893 10.653 14.6995 10.6429C14.7097 10.6327 14.7199 10.6225 14.73 10.6123C14.7402 10.6022 14.7504 10.592 14.7606 10.5818C14.7707 10.5716 14.7809 10.5615 14.7911 10.5513C14.8013 10.5411 14.8114 10.5309 14.8216 10.5208C14.8318 10.5106 14.842 10.5004 14.8521 10.4902C14.8623 10.4801 14.8725 10.4699 14.8827 10.4597C14.8928 10.4495 14.903 10.4394 14.9132 10.4394C14.9234 10.4292 14.9335 10.419 14.9437 10.419C14.9539 10.4088 14.9641 10.3987 14.9742 10.3987C14.9844 10.3885 14.9946 10.3885 15.0048 10.3783C15.0149 10.3681 15.0251 10.3681 15.0353 10.358C15.0455 10.3478 15.0556 10.3478 15.0658 10.3376C15.076 10.3275 15.0862 10.3275 15.0963 10.3173C15.1065 10.3071 15.1167 10.3071 15.1269 10.2969C15.137 10.2868 15.1472 10.2868 15.1574 10.2766C15.1676 10.2664 15.1777 10.2664 15.1879 10.2562C15.1981 10.2461 15.2083 10.2461 15.2184 10.2359C15.2286 10.2257 15.2388 10.2257 15.249 10.2155C15.2591 10.2054 15.2693 10.2054 15.2795 10.1952C15.2897 10.185 15.2998 10.185 15.31 10.185C15.3202 10.185 15.3304 10.1748 15.3405 10.1748C15.3507 10.1748 15.3609 10.1647 15.371 10.1647C15.3812 10.1647 15.3914 10.1545 15.4016 10.1545C15.4117 10.1545 15.4219 10.1443 15.4321 10.1443C15.4423 10.1443 15.4524 10.1341 15.4626 10.1341C15.4728 10.1341 15.483 10.124 15.4931 10.124C15.5033 10.124 15.5135 10.1138 15.5237 10.1138C15.5338 10.1138 15.544 10.1036 15.5542 10.1036C15.5644 10.1036 15.5745 10.0934 15.5847 10.0934L15.6152 10.0833C15.6254 10.0833 15.6356 10.0731 15.6458 10.0731C15.6559 10.0731 15.6661 10.0629 15.6763 10.0629C15.6865 10.0629 15.6966 10.0527 15.7068 10.0527L15.7373 10.0426C15.7475 10.0426 15.7577 10.0324 15.7679 10.0324C15.778 10.0324 15.7882 10.0324 15.7984 10.0222C15.8086 10.0222 15.8187 10.0222 15.8289 10.012C15.8391 10.012 15.8493 10.012 15.8594 10.0019C15.8696 10.0019 15.8798 10.0019 15.89 9.99169C15.9001 9.99169 15.9103 9.99169 15.9205 9.98151C15.9307 9.98151 15.9408 9.98151 15.951 9.97134L15.9815 9.96116H16.0121H16.0426H16.0731H16.1036H16.1341C16.1443 9.96116 16.1545 9.96116 16.1647 9.96116C16.1748 9.96116 16.185 9.96116 16.1952 9.96116H16.2257H16.2562H16.2868H16.3173C16.3275 9.96116 16.3376 9.96116 16.3478 9.96116C16.358 9.96116 16.3682 9.96116 16.3783 9.96116H16.4089H16.4394H16.4699H16.5004C16.5106 9.96116 16.5208 9.96116 16.531 9.96116H16.5615H16.592H16.6225H16.653H16.6836H16.7141H16.7446H16.7751H16.8057H16.8362H16.8464H16.8667H16.8972H16.9278H16.9583H16.9888H17.0193H17.0499H17.0804H17.1109H17.1414H17.172H17.2025H17.233H17.2635L17.2941 9.97134L17.3246 9.98151L17.3551 9.99169L17.3856 10.0019L17.4161 10.012L17.4467 10.0222L17.4772 10.0324L17.5077 10.0426L17.5382 10.0527L17.5688 10.0629L17.5993 10.0731L17.6298 10.0833L17.6603 10.0934L17.6909 10.1036L17.7214 10.1138L17.7519 10.124L17.7824 10.1341L17.813 10.1443L17.8435 10.1545L17.874 10.1647L17.9045 10.1748L17.9351 10.185L17.9656 10.1952L17.9961 10.2054L18.0266 10.2155L18.0571 10.2257L18.0877 10.2359L18.1182 10.2461L18.1487 10.2562L18.1792 10.2664L18.2098 10.2766L18.2403 10.2868L18.2708 10.2969L18.3013 10.3071L18.3319 10.3173L18.3624 10.3275L18.3929 10.3376L18.4234 10.3478L18.454 10.358L18.4845 10.3681L18.515 10.3783L18.5455 10.3885L18.5761 10.3987L18.6066 10.4088L18.6371 10.419L18.6676 10.4292L18.6981 10.4394L18.7287 10.4495L18.7592 10.4597L18.7897 10.4699L18.8202 10.4801L18.8508 10.4902L18.8813 10.5106L18.9118 10.5309L18.9423 10.5513L18.9729 10.5716L19.0034 10.592L19.0339 10.6123L19.0644 10.6327L19.095 10.653L19.1255 10.6734L19.156 10.6937L19.1865 10.7141L19.2171 10.7344L19.2476 10.7548V9.22859L19.2171 9.21842L19.1865 9.20824L19.156 9.19807L19.1255 9.18789L19.095 9.17772L19.0644 9.16754L19.0339 9.15737L19.0034 9.1472L18.9729 9.13702L18.9423 9.12685L18.9118 9.11667L18.8813 9.1065L18.8508 9.09632L18.8202 9.08615L18.7897 9.07597L18.7592 9.0658L18.7287 9.05562L18.6981 9.04545L18.6676 9.03527L18.6371 9.0251L18.6066 9.01493L18.5761 9.00475L18.5455 8.99458L18.515 8.9844L18.4845 8.97423L18.454 8.96405L18.4234 8.95388L18.3929 8.9437L18.3624 8.93353L18.3319 8.92335L18.3013 8.91318L18.2708 8.903L18.2403 8.89283L18.2098 8.88266L18.1792 8.87248L18.1487 8.86231L18.1182 8.85213L18.0877 8.84196L18.0571 8.83178L18.0266 8.82161L17.9961 8.81143L17.9656 8.80126L17.9351 8.79108L17.9045 8.78091L17.874 8.77073H17.8435H17.813H17.7824H17.7519H17.7214H17.6909H17.6603H17.6298H17.5993H17.5688H17.5382H17.5077H17.4772H17.4467H17.4161H17.3856H17.3551H17.3246H17.2941H17.2635H17.233H17.2025H17.172H17.1414H17.1109H17.0804H17.0499H17.0193H16.9888H16.9583H16.9278H16.8972H16.8667H16.8362H16.8057H16.7751H16.7548H16.7344H16.7039H16.6734H16.6429H16.6124H16.5818H16.5513H16.5208H16.4903H16.4597H16.4292H16.3987H16.3682H16.3376H16.3071H16.2766H16.2461H16.2155H16.185H16.1545H16.124H16.0934H16.0629H16.0324H16.0019H15.9714H15.9408H15.9103H15.8798H15.8493H15.8187H15.7882H15.7577H15.7272H15.6966H15.6661H15.6356H15.6051H15.5745H15.544H15.5135H15.483H15.4524H15.4219H15.3914H15.3609H15.3303H15.2998H15.2693H15.2388H15.2083H15.1777H15.1472H15.1167H15.0862H15.0556H15.0251H14.9946H14.9641H14.9335H14.903H14.8725H14.842H14.8114H14.7809H14.7504H14.7199H14.6894H14.6588H14.6283L14.5978 8.78091L14.5673 8.79108L14.5367 8.80126L14.5062 8.81143L14.4757 8.82161L14.4452 8.83178L14.4146 8.84196L14.3841 8.85213L14.3536 8.86231L14.3231 8.87248L14.2925 8.88266L14.262 8.89283L14.2315 8.903L14.201 8.91318L14.1704 8.92335L14.1399 8.93353L14.1094 8.9437L14.0789 8.95388L14.0483 8.96405L14.0178 8.97423L13.9873 8.9844L13.9568 8.99458L13.9263 9.00475L13.8957 9.01493L13.8652 9.0251L13.8347 9.03527L13.8042 9.04545L13.7736 9.05562L13.7431 9.0658L13.7126 9.07597L13.6821 9.08615L13.6515 9.09632L13.621 9.1065C13.6108 9.1065 13.6007 9.11667 13.5905 9.11667L13.56 9.12685C13.5498 9.12685 13.5396 9.13702 13.5294 9.13702L13.4989 9.1472L13.4684 9.15737C13.4582 9.15737 13.448 9.16754 13.4379 9.16754C13.4277 9.16754 13.4175 9.17772 13.4073 9.17772L13.3768 9.18789C13.3666 9.18789 13.3565 9.19807 13.3463 9.19807L13.3158 9.20824L13.2853 9.21842L13.2547 9.22859L13.2242 9.23877L13.1937 9.24894L13.1632 9.25912L13.1326 9.27947L13.1021 9.29981L13.0716 9.32016C13.0614 9.33034 13.0512 9.33034 13.0411 9.34051L13.0105 9.36086L12.98 9.38121L12.9495 9.40156C12.9393 9.41174 12.9291 9.41174 12.919 9.42191C12.9088 9.43208 12.8986 9.43209 12.8884 9.44226L12.8579 9.46261L12.8274 9.48296C12.8172 9.49313 12.807 9.49313 12.7969 9.50331C12.7867 9.51348 12.7765 9.51348 12.7663 9.52366C12.7562 9.53383 12.746 9.53383 12.7358 9.54401C12.7256 9.55418 12.7155 9.55418 12.7053 9.56435C12.6951 9.57453 12.685 9.57453 12.6748 9.5847C12.6646 9.59488 12.6544 9.59488 12.6443 9.60505L12.6137 9.6254C12.6036 9.63558 12.5934 9.64575 12.5832 9.64575L12.5527 9.6661C12.5425 9.67628 12.5323 9.68645 12.5222 9.68645C12.512 9.69662 12.5018 9.7068 12.4916 9.7068C12.4815 9.71697 12.4713 9.72715 12.4611 9.73732C12.4509 9.7475 12.4408 9.75767 12.4306 9.76785C12.4204 9.77802 12.4102 9.7882 12.4001 9.79837C12.3085 9.93064 12.2983 9.94082 12.2881 9.95099Z" fill="url(#paint2_linear_329_411)"/>
<defs>
<linearGradient id="paint0_linear_329_411" x1="22.1852" y1="12.4998" x2="31.0782" y2="12.4998" gradientUnits="userSpaceOnUse">
<stop stop-color="#007B40"/>
<stop offset="1" stop-color="#55B330"/>
</linearGradient>
<linearGradient id="paint1_linear_329_411" x1="2.23736" y1="12.5001" x2="11.1296" y2="12.5001" gradientUnits="userSpaceOnUse">
<stop stop-color="#1D2970"/>
<stop offset="1" stop-color="#006DBA"/>
</linearGradient>
<linearGradient id="paint2_linear_329_411" x1="12.2116" y1="12.5002" x2="21.1042" y2="12.5002" gradientUnits="userSpaceOnUse">
<stop stop-color="#6E2B2F"/>
<stop offset="1" stop-color="#E30138"/>
</linearGradient>
</defs>
</svg>
