<svg width="33" height="26" viewBox="0 0 33 26" fill="none" xmlns="http://www.w3.org/2000/svg">
<path d="M5.9076 24.8634V23.2079C5.93519 22.656 5.54889 22.1869 4.99704 22.1594C4.94185 22.1594 4.91426 22.1594 4.85907 22.1594C4.50037 22.1318 4.14166 22.3249 3.92092 22.6284C3.72777 22.3249 3.39666 22.1318 3.03795 22.1594C2.73443 22.1318 2.43091 22.2973 2.26536 22.5457V22.2145H1.7135V24.8634H2.29295V23.401C2.23776 23.0699 2.4861 22.7388 2.81721 22.7112C2.8448 22.7112 2.89999 22.7112 2.92758 22.7112C3.31388 22.7112 3.50703 22.9595 3.50703 23.401V24.8634H4.08648V23.401C4.03129 23.0699 4.27963 22.7388 4.61074 22.7112C4.63833 22.7112 4.69352 22.7112 4.72111 22.7112C5.10741 22.7112 5.30056 22.9595 5.30056 23.401V24.8634H5.9076ZM14.4889 22.2421H13.5508V21.4419H12.9713V22.2421H12.4471V22.7664H12.9713V23.9805C12.9713 24.5875 13.2197 24.9462 13.8819 24.9462C14.1302 24.9462 14.3786 24.8634 14.5993 24.7531L14.4338 24.2564C14.2682 24.3392 14.1026 24.3944 13.9371 24.3944C13.6612 24.3944 13.5508 24.2288 13.5508 23.9529V22.7388H14.4889V22.2421ZM19.3729 22.1594C19.0969 22.1594 18.821 22.2973 18.683 22.5457V22.2145H18.1036V24.8634H18.683V23.3734C18.683 22.932 18.8762 22.6836 19.2349 22.6836C19.3453 22.6836 19.4832 22.7112 19.5936 22.7388L19.7592 22.1869C19.6488 22.1869 19.5108 22.1594 19.3729 22.1594ZM11.978 22.4353C11.6469 22.2421 11.2882 22.1594 10.9019 22.1594C10.2397 22.1594 9.79817 22.4905 9.79817 23.0147C9.79817 23.4562 10.1293 23.7045 10.7087 23.7873L10.9847 23.8149C11.2882 23.8701 11.4537 23.9529 11.4537 24.0908C11.4537 24.284 11.233 24.422 10.8467 24.422C10.5432 24.422 10.2121 24.3392 9.96373 24.146L9.6878 24.5875C10.0189 24.8083 10.4328 24.9462 10.8191 24.9186C11.5917 24.9186 12.0332 24.5599 12.0332 24.0633C12.0332 23.5666 11.6745 23.3458 11.1226 23.2631L10.8467 23.2355C10.5984 23.2079 10.4052 23.1527 10.4052 22.9871C10.4052 22.8216 10.5984 22.6836 10.9019 22.6836C11.2054 22.6836 11.4813 22.7664 11.7297 22.9044L11.978 22.4353ZM27.3472 22.1594C27.0712 22.1594 26.7953 22.2973 26.6573 22.5457V22.2145H26.0779V24.8634H26.6573V23.3734C26.6573 22.932 26.8505 22.6836 27.2092 22.6836C27.3196 22.6836 27.4575 22.7112 27.5679 22.7388L27.7335 22.1869C27.6231 22.1869 27.4851 22.1594 27.3472 22.1594ZM19.9523 23.539C19.9247 24.284 20.5042 24.891 21.2216 24.9186C21.2768 24.9186 21.3043 24.9186 21.3595 24.9186C21.6906 24.9462 22.0494 24.8359 22.2977 24.6151L22.0218 24.146C21.8286 24.284 21.5803 24.3668 21.3319 24.3944C20.8629 24.3668 20.5318 23.9529 20.5593 23.4838C20.5869 23.0699 20.9181 22.7388 21.3319 22.7112C21.5803 22.7112 21.8286 22.794 22.0218 22.9595L22.2977 22.4905C22.0218 22.2697 21.6906 22.1594 21.3595 22.1869C20.6145 22.1318 20.0075 22.7112 19.9523 23.4286C19.9523 23.4562 19.9523 23.4838 19.9523 23.539ZM25.3329 23.539V22.2145H24.7534V22.5457C24.5603 22.2973 24.2568 22.1594 23.9257 22.1594C23.1531 22.1594 22.546 22.7664 22.546 23.539C22.546 24.3116 23.1531 24.9186 23.9257 24.9186C24.2568 24.9186 24.5603 24.7807 24.7534 24.5323V24.8634H25.3329V23.539ZM23.1807 23.539C23.2083 23.0975 23.5945 22.7664 24.036 22.794C24.4775 22.8216 24.8086 23.2079 24.781 23.6494C24.7534 24.0633 24.4223 24.3944 23.9808 24.3944C23.5394 24.3944 23.1807 24.0633 23.1807 23.6218C23.1807 23.5942 23.1807 23.5666 23.1807 23.539ZM16.2549 22.1594C15.4823 22.1594 14.8752 22.794 14.9028 23.5666C14.9304 24.3392 15.5375 24.9462 16.3101 24.9186C16.6964 24.9462 17.1103 24.8083 17.4138 24.5599L17.1378 24.146C16.9171 24.3116 16.6412 24.422 16.3652 24.422C15.9789 24.4496 15.6202 24.1736 15.5651 23.7873H17.5241C17.5241 23.7045 17.5241 23.6494 17.5241 23.5666C17.5241 22.7112 16.9999 22.1594 16.2549 22.1594ZM16.2549 22.6836C16.6136 22.6836 16.9171 22.9595 16.9171 23.3183H15.5375C15.5651 22.9595 15.8962 22.656 16.2549 22.6836ZM30.6307 23.539V21.166H30.0788V22.5457C29.8857 22.2973 29.5822 22.1594 29.2511 22.1594C28.4785 22.1594 27.8714 22.7664 27.8714 23.539C27.8714 24.3116 28.4785 24.9186 29.2511 24.9186C29.5822 24.9186 29.8857 24.7807 30.0788 24.5323V24.8634H30.6307V23.539ZM31.5964 24.4771C31.624 24.4771 31.6792 24.4771 31.7068 24.5047C31.7344 24.5047 31.762 24.5323 31.7896 24.5599C31.8172 24.5875 31.8448 24.6151 31.8448 24.6427C31.8724 24.6979 31.8724 24.7807 31.8448 24.8359C31.8172 24.8634 31.8172 24.891 31.7896 24.9186C31.762 24.9462 31.7344 24.9738 31.7068 24.9738C31.6792 25.0014 31.6516 25.0014 31.5964 25.0014C31.4861 25.0014 31.4033 24.9462 31.3481 24.8359C31.3205 24.7807 31.3205 24.6979 31.3481 24.6427C31.3757 24.6151 31.3757 24.5875 31.4033 24.5599C31.4309 24.5323 31.4585 24.5047 31.4861 24.5047C31.5413 24.4771 31.5689 24.4771 31.5964 24.4771ZM31.5964 24.9462C31.624 24.9462 31.6516 24.9462 31.6792 24.9186C31.7068 24.9186 31.7344 24.891 31.7344 24.8634C31.8172 24.7807 31.8172 24.6703 31.7344 24.5875C31.7068 24.5599 31.7068 24.5599 31.6792 24.5323C31.6516 24.5323 31.624 24.5047 31.5964 24.5047C31.5689 24.5047 31.5413 24.5047 31.5137 24.5323C31.4861 24.5323 31.4585 24.5599 31.4585 24.5875C31.3757 24.6703 31.3757 24.7807 31.4585 24.8634C31.4861 24.891 31.5137 24.891 31.5137 24.9186C31.5413 24.9462 31.5689 24.9462 31.5964 24.9462ZM31.624 24.6151C31.6516 24.6151 31.6792 24.6151 31.7068 24.6427C31.7344 24.6703 31.7344 24.6703 31.7344 24.6979C31.7344 24.7255 31.7344 24.7255 31.7068 24.7531C31.6792 24.7807 31.6792 24.7807 31.6516 24.7807L31.7344 24.8634H31.6792L31.5964 24.7807H31.5689V24.8634H31.5137V24.6151H31.624ZM31.5689 24.6703V24.7255H31.624H31.6516V24.6979V24.6703H31.624H31.5689ZM28.5336 23.539C28.5612 23.0975 28.9475 22.7664 29.389 22.794C29.8305 22.8216 30.1616 23.2079 30.134 23.6494C30.1064 24.0633 29.7753 24.3944 29.3338 24.3944C28.8924 24.3944 28.5336 24.0633 28.5336 23.6218C28.5061 23.5942 28.5336 23.5666 28.5336 23.539ZM9.13595 23.539V22.2145H8.5565V22.5457C8.36335 22.2973 8.05983 22.1594 7.72872 22.1594C6.95612 22.1594 6.34908 22.7664 6.34908 23.539C6.34908 24.3116 6.95612 24.9186 7.72872 24.9186C8.05983 24.9186 8.36335 24.7807 8.5565 24.5323V24.8634H9.13595V23.539ZM7.01131 23.539C7.0389 23.0975 7.4252 22.7664 7.86668 22.794C8.30817 22.8216 8.63928 23.2079 8.61169 23.6494C8.58409 24.0633 8.25298 24.3944 7.8115 24.3944C7.37001 24.3944 7.01131 24.0633 7.01131 23.6218C7.01131 23.5942 7.01131 23.5666 7.01131 23.539Z" fill="white"/>
<path d="M20.4769 2.12695H11.7852V17.7444H20.4769V2.12695Z" fill="#FF5F00"/>
<path d="M12.3367 9.93569C12.3367 6.90048 13.744 4.00325 16.1445 2.12694C11.8125 -1.26697 5.57651 -0.521965 2.1826 3.8101C-1.21131 8.14216 -0.466301 14.3505 3.86576 17.7444C7.48041 20.5865 12.5299 20.5865 16.1445 17.7444C13.744 15.8681 12.3367 12.9985 12.3367 9.93569Z" fill="#EB001B"/>
<path d="M32.2039 9.93569C32.2039 15.4266 27.7614 19.8691 22.2705 19.8691C20.0355 19.8691 17.8832 19.1241 16.1449 17.7444C20.4494 14.3505 21.1944 8.11456 17.8005 3.8101C17.3038 3.17546 16.7519 2.62361 16.1173 2.12694C20.4218 -1.26697 26.6853 -0.521965 30.0792 3.8101C31.4589 5.54844 32.2039 7.70067 32.2039 9.93569Z" fill="#F79E1B"/>
<path d="M31.2658 16.0885V15.7573H31.4037V15.7021H31.0726V15.7573H31.2106V16.0885H31.2658ZM31.9004 16.0885V15.7021H31.79L31.6797 15.9781L31.5693 15.7021H31.4865V16.0885H31.5693V15.8125L31.6797 16.0609H31.7624L31.8728 15.8125V16.116L31.9004 16.0885Z" fill="#F79E1B"/>
</svg>
