<svg width="65" height="19" viewBox="0 0 65 19" fill="none" xmlns="http://www.w3.org/2000/svg">
<path d="M58.2566 0.125H45.8018C46.4714 4.27662 50.4891 8.1604 54.9085 8.1604H64.8189C64.9528 7.75863 64.9528 7.22294 64.9528 6.82117C64.9528 3.07131 62.0065 0.125 58.2566 0.125Z" fill="url(#paint0_linear_329_406)"/>
<path d="M46.8732 8.8302V18.8745H52.8997V13.5175H58.2567C61.203 13.5175 63.7475 11.5087 64.5511 8.8302H46.8732Z" fill="#4DB45F"/>
<path d="M25.4453 0.125V18.8743H30.8022C30.8022 18.8743 32.1415 18.8743 32.8111 17.535C36.427 10.3032 37.4984 8.1604 37.4984 8.1604H38.168V18.8743H44.1946V0.125H38.8376C38.8376 0.125 37.4984 0.258923 36.8288 1.46423C33.7486 7.62471 32.1415 10.8389 32.1415 10.8389H31.4719V0.125H25.4453Z" fill="#4DB45F"/>
<path d="M0 18.8743V0.125H6.02655C6.02655 0.125 7.76756 0.125 8.70502 2.80347C11.1156 9.90141 11.3835 10.8389 11.3835 10.8389C11.3835 10.8389 11.9192 9.09787 14.062 2.80347C14.9994 0.125 16.7404 0.125 16.7404 0.125H22.767V18.8743H16.7404V8.83002H16.0708L12.7227 18.8743H10.0443L6.69617 8.83002H6.02655V18.8743H0Z" fill="#4DB45F"/>
<defs>
<linearGradient id="paint0_linear_329_406" x1="45.7672" y1="4.1427" x2="64.9528" y2="4.1427" gradientUnits="userSpaceOnUse">
<stop stop-color="#00B4E6"/>
<stop offset="1" stop-color="#088CCB"/>
</linearGradient>
</defs>
</svg>
