<svg width="59" height="19" viewBox="0 0 59 19" fill="none" xmlns="http://www.w3.org/2000/svg">
<mask id="mask0_329_423" style="mask-type:alpha" maskUnits="userSpaceOnUse" x="0" y="0" width="59" height="19">
<path d="M0.681763 0.125H58.5805V18.8743H0.681763" fill="white"/>
</mask>
<g mask="url(#mask0_329_423)">
<path d="M21.0818 18.5193L24.0298 0.477539H28.6287L25.7986 18.5193H21.0818Z" fill="#005CA3"/>
</g>
<mask id="mask1_329_423" style="mask-type:alpha" maskUnits="userSpaceOnUse" x="0" y="0" width="59" height="19">
<path d="M0.681763 0.125H58.5805V18.8743H0.681763" fill="white"/>
</mask>
<g mask="url(#mask1_329_423)">
<path d="M42.7792 0.95044C41.8358 0.59668 40.4208 0.125 38.5341 0.125C33.9352 0.125 30.6334 2.60132 30.6334 6.13892C30.6334 8.73316 32.9918 10.1482 34.7606 11.0916C36.5294 12.0349 37.2369 12.5066 37.2369 13.332C37.2369 14.5112 35.8219 15.1008 34.4069 15.1008C32.5201 15.1008 31.5768 14.865 30.0438 14.1575L29.4542 13.9216L28.7467 18.0488C29.808 18.5205 31.8126 18.9922 33.9352 18.9922C38.8878 18.9922 42.0717 16.5159 42.0717 12.8604C42.0717 10.7378 40.8925 9.20484 38.1803 7.90772C36.5294 7.08228 35.5861 6.49268 35.5861 5.66724C35.5861 4.8418 36.4115 4.13428 38.2982 4.13428C39.8312 4.13428 40.8925 4.48804 41.8358 4.8418H42.0717L42.7792 0.95044Z" fill="#005CA3"/>
</g>
<path d="M54.8069 0.477539H51.1514C50.0901 0.477539 49.1467 0.831299 48.6751 2.0105L41.7178 18.6372H46.6704C46.6704 18.6372 47.4959 16.3967 47.6138 15.9251H53.6277C53.7456 16.5147 54.2173 18.6372 54.2173 18.6372H58.5803L54.8069 0.477539ZM49.0288 12.1516C49.3826 11.0903 50.9155 7.08106 50.9155 7.08106C50.9155 7.08106 51.2693 6.01978 51.5051 5.31226L51.8589 6.84522C51.8589 6.84522 52.8022 11.2083 52.9202 12.0337H49.0288V12.1516Z" fill="#005CA3"/>
<path d="M17.1907 0.479248L12.5918 12.8608L12.0022 10.2666C11.1768 7.31861 8.4646 4.25269 5.5166 2.71973L9.76172 18.521H14.7144L22.0254 0.361328H17.1907" fill="#005CA3"/>
<path d="M8.34644 0.477539H0.799561L0.681641 0.831299C6.57764 2.36426 10.469 5.90186 12.002 10.2649L10.469 2.0105C10.1152 0.831299 9.2898 0.477539 8.34644 0.477539Z" fill="#FFAD30"/>
</svg>
